<svg width="93" height="128" viewBox="0 0 93 128" fill="none" xmlns="http://www.w3.org/2000/svg">
<path d="M92 13V12.5H92.6544L92.4824 13.1314L92 13ZM64.1667 125C64.1667 126.473 62.9728 127.667 61.5 127.667C60.0272 127.667 58.8333 126.473 58.8333 125C58.8333 123.527 60.0272 122.333 61.5 122.333C62.9728 122.333 64.1667 123.527 64.1667 125ZM92 13.5H0.5V12.5H92V13.5ZM92.4824 13.1314L61.9824 125.131L61.0176 124.869L91.5176 12.8686L92.4824 13.1314Z" fill="white"/>
<path d="M5.58 7H4.77V1.537L1.692 7H0.54V0.7H1.35V6.163L4.428 0.7H5.58V7ZM6.65719 7V1.96H7.46719V4.12H10.3472V1.96H11.1572V7H10.3472V4.84H7.46719V7H6.65719ZM12.5082 8.26V7.54H15.8382V6.28H13.0032L12.1932 5.47V2.77L13.0932 1.96H16.6482V7.414L15.8022 8.26H12.5082ZM13.0032 2.68V5.56H15.8382V2.68H13.0032ZM22.5014 7H21.6914V2.797L18.7934 7H17.7314V1.96H18.5414V6.163L21.4394 1.96H22.5014V7ZM23.8486 7V1.96H24.6586V4.021H26.4046L27.7906 1.96H28.7266L27.1336 4.282L28.7986 7H27.8806L26.5216 4.741H24.6586V7H23.8486ZM29.3396 6.19V4.12L32.9396 4.03V2.68H29.5196V1.96H32.9396L33.7496 2.77V7H30.1496L29.3396 6.19ZM30.1496 4.84V6.28H32.9396V4.66L30.1496 4.84ZM37.2561 7H36.4461V2.68H34.4661V1.96H39.2361V2.68H37.2561V7ZM39.9139 6.19V2.77L40.7239 1.96H43.5139L44.3239 2.77V6.19L43.5139 7H40.7239L39.9139 6.19ZM40.7239 6.28H43.5139V2.68H40.7239V6.28ZM45.3554 8.26V1.96H49.0904L49.9004 2.77V6.19L49.0904 7H46.1654V8.26H45.3554ZM49.0904 2.68H46.1654V6.28H49.0904V2.68ZM53.3194 7V1.96H57.8194V7H57.0094V2.68H54.1294V7H53.3194ZM63.7133 7H62.9033V2.797L60.0053 7H58.9433V1.96H59.7533V6.163L62.6513 1.96H63.7133V7ZM67.4905 7H66.6805V2.68H64.7005V1.96H69.4705V2.68H67.4905V7ZM70.1033 6.19V4.12L73.7033 4.03V2.68H70.2833V1.96H73.7033L74.5133 2.77V7H70.9133L70.1033 6.19ZM70.9133 4.84V6.28H73.7033V4.66L70.9133 4.84ZM75.5898 7V1.96H76.3998V4.12H79.2798V1.96H80.0898V7H79.2798V4.84H76.3998V7H75.5898ZM85.9409 7H85.1309V2.797L82.2329 7H81.1709V1.96H81.9809V6.163L84.8789 1.96H85.9409V7ZM87.288 4.75V2.68L88.008 1.96H92.148V7H91.338V5.38H88.512L87.711 7H86.838L87.765 5.227L87.288 4.75ZM88.098 4.66H91.338V2.68H88.098V4.66Z" fill="white"/>
</svg>
