<svg width="126" height="169" viewBox="0 0 126 169" fill="none" xmlns="http://www.w3.org/2000/svg">
<path d="M94 168L94.4925 168.087L94.4198 168.5H94V168ZM125.667 3C125.667 4.47276 124.473 5.66667 123 5.66667C121.527 5.66667 120.333 4.47276 120.333 3C120.333 1.52724 121.527 0.333333 123 0.333333C124.473 0.333333 125.667 1.52724 125.667 3ZM94 168.5H0V167.5H94V168.5ZM93.5075 167.913L122.508 2.91345L123.492 3.08655L94.4925 168.087L93.5075 167.913Z" fill="white"/>
<path d="M0.54 151V144.7H5.31V151H4.5V145.42H1.35V151H0.54ZM6.39352 152.26V145.96H10.1285L10.9385 146.77V150.19L10.1285 151H7.20352V152.26H6.39352ZM10.1285 146.68H7.20352V150.28H10.1285V146.68ZM11.9296 150.19V146.77L12.7396 145.96H15.5296L16.3396 146.77V150.19L15.5296 151H12.7396L11.9296 150.19ZM12.7396 150.28H15.5296V146.68H12.7396V150.28ZM17.3711 151V145.96H20.8811V146.68H18.1811V151H17.3711ZM21.5986 152.26V145.96H25.3336L26.1436 146.77V150.19L25.3336 151H22.4086V152.26H21.5986ZM25.3336 146.68H22.4086V150.28H25.3336V146.68ZM27.0896 150.19V148.12L30.6896 148.03V146.68H27.2696V145.96H30.6896L31.4996 146.77V151H27.8996L27.0896 150.19ZM27.8996 148.84V150.28H30.6896V148.66L27.8996 148.84ZM32.5761 151V145.96H33.6021L35.2761 148.534L36.9501 145.96H37.9761V151H37.1841V146.86L35.5461 149.38H35.0061L33.3681 146.86V151H32.5761ZM39.0537 151V145.96H40.0797L41.7537 148.534L43.4277 145.96H44.4537V151H43.6617V146.86L42.0237 149.38H41.4837L39.8457 146.86V151H39.0537ZM50.3012 151H49.4912V146.797L46.5932 151H45.5312V145.96H46.3412V150.163L49.2392 145.96H50.3012V151ZM51.6484 152.26V145.96H55.3834L56.1934 146.77V150.19L55.3834 151H52.4584V152.26H51.6484ZM55.3834 146.68H52.4584V150.28H55.3834V146.68ZM57.1845 150.19V146.77L57.9945 145.96H60.7845L61.5945 146.77V150.19L60.7845 151H57.9945L57.1845 150.19ZM57.9945 150.28H60.7845V146.68H57.9945V150.28ZM62.6259 145.96H66.2259L66.9459 146.68V147.985L66.4329 148.372L67.1259 148.912V150.28L66.4059 151H62.6259V145.96ZM63.4359 148.066H66.1359V146.68H63.4359V148.066ZM63.4359 150.28H66.3159V148.786H63.4359V150.28ZM68.0291 150.19V148.12L71.6291 148.03V146.68H68.2091V145.96H71.6291L72.4391 146.77V151H68.8391L68.0291 150.19ZM68.8391 148.84V150.28H71.6291V148.66L68.8391 148.84ZM73.5156 151V145.96H74.3256V148.12H77.2056V145.96H78.0156V151H77.2056V148.84H74.3256V151H73.5156ZM83.8666 151H83.0566V146.797L80.1586 151H79.0966V145.96H79.9066V150.163L82.8046 145.96H83.8666V151ZM85.1688 150.19V146.77L85.9788 145.96H89.4888V148.75H85.9788V150.28H89.3088V151H85.9788L85.1688 150.19ZM85.9788 148.12L88.7148 148.03V146.68H85.9788V148.12ZM0.585 162V156.96H5.085V162H4.275V157.68H1.395V162H0.585ZM6.16395 161.19V157.77L6.97395 156.96H9.76395L10.5739 157.77V161.19L9.76395 162H6.97395L6.16395 161.19ZM6.97395 161.28H9.76395V157.68H6.97395V161.28ZM13.9433 161.28V155.7H14.7533V161.28H17.9033V155.7H18.7133V161.28L17.9933 162H14.6633L13.9433 161.28ZM19.8868 162V161.28H23.6668V159.273L19.7968 158.976V156.42L20.5168 155.7H24.3868V156.42H20.6068V158.337L24.4768 158.634V161.28L23.7568 162H19.8868ZM30.2337 156.42V158.229L29.8107 158.616L30.4137 159.156V161.28L29.6937 162H25.5537V155.7H29.5137L30.2337 156.42ZM26.3637 158.355H29.4237V156.42H26.3637V158.355ZM26.3637 161.28H29.6037V159.075H26.3637V161.28Z" fill="white"/>
</svg>
