<svg width="95" height="44" viewBox="0 0 95 44" fill="none" xmlns="http://www.w3.org/2000/svg">
<path d="M65 43.5L64.7516 43.9339L64.867 44H65V43.5ZM0.333333 8C0.333333 9.47276 1.52724 10.6667 3 10.6667C4.47276 10.6667 5.66667 9.47276 5.66667 8C5.66667 6.52724 4.47276 5.33333 3 5.33333C1.52724 5.33333 0.333333 6.52724 0.333333 8ZM35.3333 3.5C35.3333 4.97276 36.5272 6.16667 38 6.16667C39.4728 6.16667 40.6667 4.97276 40.6667 3.5C40.6667 2.02724 39.4728 0.833333 38 0.833333C36.5272 0.833333 35.3333 2.02724 35.3333 3.5ZM65 44H94.5V43H65V44ZM65.2484 43.0661L3.24845 7.56609L2.75155 8.43391L64.7516 43.9339L65.2484 43.0661ZM65.4144 43.2203L38.4144 3.22026L37.5856 3.77974L64.5856 43.7797L65.4144 43.2203Z" fill="white"/>
<path d="M65.54 41V34.7H69.86V35.42H66.35V37.4H69.41V38.12H66.35V40.28H69.95V41H65.54ZM70.8507 41V40.28H74.6307V38.273L70.7607 37.976V35.42L71.4807 34.7H75.3507V35.42H71.5707V37.337L75.4407 37.634V40.28L74.7207 41H70.8507ZM81.1975 35.42V38.93L80.4775 39.65H77.3275V41H76.5175V34.7H80.4775L81.1975 35.42ZM77.3275 38.93H80.3875V35.42H77.3275V38.93ZM81.9186 38.525V37.715H84.2586V38.525H81.9186ZM85.1572 40.28V35.42L85.8772 34.7H89.2072L89.9272 35.42V40.28L89.2072 41H85.8772L85.1572 40.28ZM85.9672 35.42V40.28H89.1172V35.42H85.9672ZM90.8757 41.036V40.316L92.0907 40.271V35.654L90.9657 35.735V35.06L92.9007 34.7V40.271L93.9357 40.316V41.036L92.4057 40.964L90.8757 41.036Z" fill="white"/>
</svg>
