<svg width="193" height="79" viewBox="0 0 193 79" fill="none" xmlns="http://www.w3.org/2000/svg">
<path d="M82 78L81.7045 78.4034L81.8365 78.5H82V78ZM0.833333 20.5C0.833333 21.9728 2.02724 23.1667 3.5 23.1667C4.97276 23.1667 6.16667 21.9728 6.16667 20.5C6.16667 19.0272 4.97276 17.8333 3.5 17.8333C2.02724 17.8333 0.833333 19.0272 0.833333 20.5ZM91.8333 3C91.8333 4.47276 93.0272 5.66667 94.5 5.66667C95.9728 5.66667 97.1667 4.47276 97.1667 3C97.1667 1.52724 95.9728 0.333333 94.5 0.333333C93.0272 0.333333 91.8333 1.52724 91.8333 3ZM82 78.5H192.5V77.5H82V78.5ZM82.2955 77.5966L3.79546 20.0966L3.20454 20.9034L81.7045 78.4034L82.2955 77.5966ZM82.4932 78.0822L94.9932 3.0822L94.0068 2.9178L81.5068 77.9178L82.4932 78.0822Z" fill="white"/>
<path d="M88.54 74V67.7H93.31V74H92.5V68.42H89.35V74H88.54ZM99.1635 74H98.3535V69.797L95.4555 74H94.3935V68.96H95.2035V73.163L98.1015 68.96H99.1635V74ZM102.941 74H102.131V69.68H100.151V68.96H104.921V69.68H102.941V74ZM105.554 73.19V71.12L109.154 71.03V69.68H105.734V68.96H109.154L109.964 69.77V74H106.364L105.554 73.19ZM106.364 71.84V73.28H109.154V71.66L106.364 71.84ZM111.04 74V68.96H111.85V71.12H114.73V68.96H115.54V74H114.73V71.84H111.85V74H111.04ZM121.391 74H120.581V69.797L117.683 74H116.621V68.96H117.431V73.163L120.329 68.96H121.391V74ZM122.693 73.19V69.77L123.503 68.96H127.013V71.75H123.503V73.28H126.833V74H123.503L122.693 73.19ZM123.503 71.12L126.239 71.03V69.68H123.503V71.12ZM130.385 75.26V68.96H134.12L134.93 69.77V73.19L134.12 74H131.195V75.26H130.385ZM134.12 69.68H131.195V73.28H134.12V69.68ZM135.876 73.19V71.12L139.476 71.03V69.68H136.056V68.96H139.476L140.286 69.77V74H136.686L135.876 73.19ZM136.686 71.84V73.28H139.476V71.66L136.686 71.84ZM141.632 75.26V74.54H144.962V73.28H142.127L141.317 72.47V69.77L142.217 68.96H145.772V74.414L144.926 75.26H141.632ZM142.127 69.68V72.56H144.962V69.68H142.127ZM151.625 74H150.815V69.797L147.917 74H146.855V68.96H147.665V73.163L150.563 68.96H151.625V74ZM152.928 73.19V69.77L153.738 68.96H156.528L157.338 69.77V73.19L156.528 74H153.738L152.928 73.19ZM153.738 73.28H156.528V69.68H153.738V73.28ZM158.369 74V68.96H159.395L161.069 71.534L162.743 68.96H163.769V74H162.977V69.86L161.339 72.38H160.799L159.161 69.86V74H158.369ZM164.802 73.19V69.77L165.612 68.96H168.402L169.212 69.77V73.19L168.402 74H165.612L164.802 73.19ZM165.612 73.28H168.402V69.68H165.612V73.28ZM170.513 75.26V74.54H173.843V73.28H171.008L170.198 72.47V69.77L171.098 68.96H174.653V74.414L173.807 75.26H170.513ZM171.008 69.68V72.56H173.843V69.68H171.008ZM175.565 75.26V74.54H177.914L178.301 73.28H176.762L175.295 68.96H176.114L177.338 72.56H178.517L179.678 68.96H180.497L178.481 75.26H175.565ZM185.633 68.96V74H184.823V69.662H182.726L182.339 74H180.728V73.262H181.646L181.961 69.662H181.178V68.96H185.633ZM186.714 71.75V69.68L187.434 68.96H191.574V74H190.764V72.38H187.938L187.137 74H186.264L187.191 72.227L186.714 71.75ZM187.524 71.66H190.764V69.68H187.524V71.66Z" fill="white"/>
</svg>
