<svg width="953" height="988" viewBox="0 0 953 988" fill="none" xmlns="http://www.w3.org/2000/svg">
<path d="M109.167 109C109.167 110.473 107.973 111.667 106.5 111.667C105.027 111.667 103.833 110.473 103.833 109C103.833 107.527 105.027 106.333 106.5 106.333C107.973 106.333 109.167 107.527 109.167 109ZM82.5 25V24.5H82.72L82.8687 24.6622L82.5 25ZM156.167 102.5C156.167 103.973 154.973 105.167 153.5 105.167C152.027 105.167 150.833 103.973 150.833 102.5C150.833 101.027 152.027 99.8333 153.5 99.8333C154.973 99.8333 156.167 101.027 156.167 102.5ZM106.019 109.137L82.0192 25.1374L82.9808 24.8626L106.981 108.863L106.019 109.137ZM82.5 25.5H0V24.5H82.5V25.5ZM82.8687 24.6622L153.869 102.162L153.131 102.838L82.1313 25.3378L82.8687 24.6622Z" fill="white"/>
<path d="M7.58 7H6.77V1.537L3.692 7H2.54V0.7H3.35V6.163L6.428 0.7H7.58V7ZM8.65719 7V1.96H9.46719V4.12H12.3472V1.96H13.1572V7H12.3472V4.84H9.46719V7H8.65719ZM16.6682 7H15.8582V2.68H13.8782V1.96H18.6482V2.68H16.6682V7ZM19.3261 6.19V2.77L20.1361 1.96H23.6461V4.75H20.1361V6.28H23.4661V7H20.1361L19.3261 6.19ZM20.1361 4.12L22.8721 4.03V2.68H20.1361V4.12ZM24.6796 8.26V1.96H28.4146L29.2246 2.77V6.19L28.4146 7H25.4896V8.26H24.6796ZM28.4146 2.68H25.4896V6.28H28.4146V2.68ZM30.2607 6.28V2.68L30.9807 1.96H32.9157V0.7H33.7257V1.96H35.6607L36.3807 2.68V6.28L35.6607 7H33.7257V8.26H32.9157V7H30.9807L30.2607 6.28ZM31.0707 2.644V6.316H32.9157V2.644H31.0707ZM35.5707 2.644H33.7257V6.316H35.5707V2.644ZM37.4139 6.19V2.77L38.2239 1.96H41.7339V4.75H38.2239V6.28H41.5539V7H38.2239L37.4139 6.19ZM38.2239 4.12L40.9599 4.03V2.68H38.2239V4.12ZM47.5375 7H46.7275V2.797L43.8295 7H42.7675V1.96H43.5775V6.163L46.4755 1.96H47.5375V7ZM46.2595 0.249999H47.0875L46.4575 1.33H44.1175L43.4875 0.249999H44.3155L44.6125 0.745H45.9625L46.2595 0.249999ZM48.8397 6.19V2.77L49.6497 1.96H52.9797V2.68H49.6497V6.28H52.9797V7H49.6497L48.8397 6.19ZM55.9469 6.19V4.3H56.7569V6.28H59.6369V1.42H56.1269V0.7H60.4469V6.19L59.6369 7H56.7569L55.9469 6.19ZM61.3434 4.525V3.715H63.6834V4.525H61.3434ZM64.582 7V0.7H65.392V6.28H68.398V4.48H69.172V7H64.582ZM69.9785 1.33V0.61H70.7885V1.33H69.9785ZM69.9785 7V1.96H70.7885V7H69.9785ZM71.8681 7V1.96H75.5581L76.3681 2.77V7H75.5581V2.68H72.6781V7H71.8681ZM77.4492 7V0.7H78.2592V4.021H79.8612L81.2112 1.96H82.1382L80.5542 4.282L82.2192 7H81.3012L79.9422 4.741H78.2592V7H77.4492ZM2.585 18V12.96H7.085V18H6.275V13.68H3.395V18H2.585ZM8.20895 19.26V12.96H11.9439L12.7539 13.77V17.19L11.9439 18H9.01895V19.26H8.20895ZM11.9439 13.68H9.01895V17.28H11.9439V13.68ZM13.745 17.19V13.77L14.555 12.96H17.345L18.155 13.77V17.19L17.345 18H14.555L13.745 17.19ZM14.555 17.28H17.345V13.68H14.555V17.28ZM19.1865 18V12.96H22.6965V13.68H19.9965V18H19.1865ZM23.414 19.26V12.96H27.149L27.959 13.77V17.19L27.149 18H24.224V19.26H23.414ZM27.149 13.68H24.224V17.28H27.149V13.68ZM28.9051 17.19V15.12L32.5051 15.03V13.68H29.0851V12.96H32.5051L33.3151 13.77V18H29.7151L28.9051 17.19ZM29.7151 15.84V17.28H32.5051V15.66L29.7151 15.84ZM34.3916 18V12.96H35.4176L37.0916 15.534L38.7656 12.96H39.7916V18H38.9996V13.86L37.3616 16.38H36.8216L35.1836 13.86V18H34.3916ZM40.8691 18V12.96H41.8951L43.5691 15.534L45.2431 12.96H46.2691V18H45.4771V13.86L43.8391 16.38H43.2991L41.6611 13.86V18H40.8691ZM47.2566 17.19V15.12L50.8566 15.03V13.68H47.4366V12.96H50.8566L51.6666 13.77V18H48.0666L47.2566 17.19ZM48.0666 15.84V17.28H50.8566V15.66L48.0666 15.84ZM55.1731 18H54.3631V13.68H52.3831V12.96H57.1531V13.68H55.1731V18ZM57.8309 17.19V13.77L58.6409 12.96H61.4309L62.2409 13.77V17.19L61.4309 18H58.6409L57.8309 17.19ZM58.6409 17.28H61.4309V13.68H58.6409V17.28ZM63.2724 19.26V12.96H67.0074L67.8174 13.77V17.19L67.0074 18H64.0824V19.26H63.2724ZM67.0074 13.68H64.0824V17.28H67.0074V13.68ZM68.7635 17.19V15.12L72.3635 15.03V13.68H68.9435V12.96H72.3635L73.1735 13.77V18H69.5735L68.7635 17.19ZM69.5735 15.84V17.28H72.3635V15.66L69.5735 15.84Z" fill="white"/>
<path d="M842 987L841.705 987.403L841.836 987.5H842V987ZM760.833 929.5C760.833 930.973 762.027 932.167 763.5 932.167C764.973 932.167 766.167 930.973 766.167 929.5C766.167 928.027 764.973 926.833 763.5 926.833C762.027 926.833 760.833 928.027 760.833 929.5ZM851.833 912C851.833 913.473 853.027 914.667 854.5 914.667C855.973 914.667 857.167 913.473 857.167 912C857.167 910.527 855.973 909.333 854.5 909.333C853.027 909.333 851.833 910.527 851.833 912ZM842 987.5H952.5V986.5H842V987.5ZM842.295 986.597L763.795 929.097L763.205 929.903L841.705 987.403L842.295 986.597ZM842.493 987.082L854.993 912.082L854.007 911.918L841.507 986.918L842.493 987.082Z" fill="white"/>
<path d="M848.54 983V976.7H853.31V983H852.5V977.42H849.35V983H848.54ZM859.164 983H858.354V978.797L855.456 983H854.394V977.96H855.204V982.163L858.102 977.96H859.164V983ZM862.941 983H862.131V978.68H860.151V977.96H864.921V978.68H862.941V983ZM865.554 982.19V980.12L869.154 980.03V978.68H865.734V977.96H869.154L869.964 978.77V983H866.364L865.554 982.19ZM866.364 980.84V982.28H869.154V980.66L866.364 980.84ZM871.04 983V977.96H871.85V980.12H874.73V977.96H875.54V983H874.73V980.84H871.85V983H871.04ZM881.391 983H880.581V978.797L877.683 983H876.621V977.96H877.431V982.163L880.329 977.96H881.391V983ZM882.693 982.19V978.77L883.503 977.96H887.013V980.75H883.503V982.28H886.833V983H883.503L882.693 982.19ZM883.503 980.12L886.239 980.03V978.68H883.503V980.12ZM890.385 984.26V977.96H894.12L894.93 978.77V982.19L894.12 983H891.195V984.26H890.385ZM894.12 978.68H891.195V982.28H894.12V978.68ZM895.876 982.19V980.12L899.476 980.03V978.68H896.056V977.96H899.476L900.286 978.77V983H896.686L895.876 982.19ZM896.686 980.84V982.28H899.476V980.66L896.686 980.84ZM901.632 984.26V983.54H904.962V982.28H902.127L901.317 981.47V978.77L902.217 977.96H905.772V983.414L904.926 984.26H901.632ZM902.127 978.68V981.56H904.962V978.68H902.127ZM911.625 983H910.815V978.797L907.917 983H906.855V977.96H907.665V982.163L910.563 977.96H911.625V983ZM912.928 982.19V978.77L913.738 977.96H916.528L917.338 978.77V982.19L916.528 983H913.738L912.928 982.19ZM913.738 982.28H916.528V978.68H913.738V982.28ZM918.369 983V977.96H919.395L921.069 980.534L922.743 977.96H923.769V983H922.977V978.86L921.339 981.38H920.799L919.161 978.86V983H918.369ZM924.802 982.19V978.77L925.612 977.96H928.402L929.212 978.77V982.19L928.402 983H925.612L924.802 982.19ZM925.612 982.28H928.402V978.68H925.612V982.28ZM930.513 984.26V983.54H933.843V982.28H931.008L930.198 981.47V978.77L931.098 977.96H934.653V983.414L933.807 984.26H930.513ZM931.008 978.68V981.56H933.843V978.68H931.008ZM935.565 984.26V983.54H937.914L938.301 982.28H936.762L935.295 977.96H936.114L937.338 981.56H938.517L939.678 977.96H940.497L938.481 984.26H935.565ZM945.633 977.96V983H944.823V978.662H942.726L942.339 983H940.728V982.262H941.646L941.961 978.662H941.178V977.96H945.633ZM946.714 980.75V978.68L947.434 977.96H951.574V983H950.764V981.38H947.938L947.137 983H946.264L947.191 981.227L946.714 980.75ZM947.524 980.66H950.764V978.68H947.524V980.66Z" fill="white"/>
</svg>
