<svg width="138" height="162" viewBox="0 0 138 162" fill="none" xmlns="http://www.w3.org/2000/svg">
<path d="M1 161L0.510011 160.9L0.388197 161.5H1V161ZM30.3333 3.5C30.3333 4.97276 31.5272 6.16667 33 6.16667C34.4728 6.16667 35.6667 4.97276 35.6667 3.5C35.6667 2.02724 34.4728 0.833333 33 0.833333C31.5272 0.833333 30.3333 2.02724 30.3333 3.5ZM1 161.5H137.5V160.5H1V161.5ZM1.48999 161.1L33.49 3.59955L32.51 3.40045L0.510011 160.9L1.48999 161.1Z" fill="white"/>
<path d="M12.54 155V148.7H17.31V155H16.5V149.42H13.35V155H12.54ZM18.3935 156.26V149.96H22.1285L22.9385 150.77V154.19L22.1285 155H19.2035V156.26H18.3935ZM22.1285 150.68H19.2035V154.28H22.1285V150.68ZM23.9296 154.19V150.77L24.7396 149.96H27.5296L28.3396 150.77V154.19L27.5296 155H24.7396L23.9296 154.19ZM24.7396 154.28H27.5296V150.68H24.7396V154.28ZM29.3711 155V149.96H32.8811V150.68H30.1811V155H29.3711ZM33.5986 156.26V149.96H37.3336L38.1436 150.77V154.19L37.3336 155H34.4086V156.26H33.5986ZM37.3336 150.68H34.4086V154.28H37.3336V150.68ZM39.0896 154.19V152.12L42.6896 152.03V150.68H39.2696V149.96H42.6896L43.4996 150.77V155H39.8996L39.0896 154.19ZM39.8996 152.84V154.28H42.6896V152.66L39.8996 152.84ZM44.5761 155V149.96H45.6021L47.2761 152.534L48.9501 149.96H49.9761V155H49.1841V150.86L47.5461 153.38H47.0061L45.3681 150.86V155H44.5761ZM51.0537 155V149.96H52.0797L53.7537 152.534L55.4277 149.96H56.4537V155H55.6617V150.86L54.0237 153.38H53.4837L51.8457 150.86V155H51.0537ZM62.3012 155H61.4912V150.797L58.5932 155H57.5312V149.96H58.3412V154.163L61.2392 149.96H62.3012V155ZM63.6484 156.26V149.96H67.3834L68.1934 150.77V154.19L67.3834 155H64.4584V156.26H63.6484ZM67.3834 150.68H64.4584V154.28H67.3834V150.68ZM69.1845 154.19V150.77L69.9945 149.96H72.7845L73.5945 150.77V154.19L72.7845 155H69.9945L69.1845 154.19ZM69.9945 154.28H72.7845V150.68H69.9945V154.28ZM74.6259 149.96H78.2259L78.9459 150.68V151.985L78.4329 152.372L79.1259 152.912V154.28L78.4059 155H74.6259V149.96ZM75.4359 152.066H78.1359V150.68H75.4359V152.066ZM75.4359 154.28H78.3159V152.786H75.4359V154.28ZM80.0291 154.19V152.12L83.6291 152.03V150.68H80.2091V149.96H83.6291L84.4391 150.77V155H80.8391L80.0291 154.19ZM80.8391 152.84V154.28H83.6291V152.66L80.8391 152.84ZM85.5156 155V149.96H86.3256V152.12H89.2056V149.96H90.0156V155H89.2056V152.84H86.3256V155H85.5156ZM95.8666 155H95.0566V150.797L92.1586 155H91.0966V149.96H91.9066V154.163L94.8046 149.96H95.8666V155ZM97.1688 154.19V150.77L97.9788 149.96H101.489V152.75H97.9788V154.28H101.309V155H97.9788L97.1688 154.19ZM97.9788 152.12L100.715 152.03V150.68H97.9788V152.12ZM104.905 155V149.96H109.405V155H108.595V150.68H105.715V155H104.905ZM110.484 154.19V150.77L111.294 149.96H114.084L114.894 150.77V154.19L114.084 155H111.294L110.484 154.19ZM111.294 154.28H114.084V150.68H111.294V154.28ZM118.264 154.28V148.7H119.074V154.28H122.224V148.7H123.034V154.28L122.314 155H118.984L118.264 154.28ZM124.207 155V154.28H127.987V152.273L124.117 151.976V149.42L124.837 148.7H128.707V149.42H124.927V151.337L128.797 151.634V154.28L128.077 155H124.207ZM134.554 149.42V151.229L134.131 151.616L134.734 152.156V154.28L134.014 155H129.874V148.7H133.834L134.554 149.42ZM130.684 151.355H133.744V149.42H130.684V151.355ZM130.684 154.28H133.924V152.075H130.684V154.28Z" fill="white"/>
</svg>
