<svg width="81" height="154" viewBox="0 0 81 154" fill="none" xmlns="http://www.w3.org/2000/svg">
<path d="M33.5 153V153.5H33.8732L33.9794 153.142L33.5 153ZM75.3333 3C75.3333 4.47276 76.5272 5.66667 78 5.66667C79.4728 5.66667 80.6667 4.47276 80.6667 3C80.6667 1.52724 79.4728 0.333333 78 0.333333C76.5272 0.333333 75.3333 1.52724 75.3333 3ZM33.5 152.5H0.574219V153.5H33.5V152.5ZM33.9794 153.142L78.4793 3.14221L77.5207 2.85779L33.0206 152.858L33.9794 153.142Z" fill="white"/>
<path d="M1.54 148.28V143.42L2.26 142.7H6.04V143.42H2.35V148.28H5.536V146.057H3.61V145.355H6.31V149H2.26L1.54 148.28ZM12.0735 143.42V146.93L11.3535 147.65H8.20352V149H7.39352V142.7H11.3535L12.0735 143.42ZM8.20352 146.93H11.2635V143.42H8.20352V146.93ZM12.8396 149.036V148.316L13.9646 148.271V143.429L12.8396 143.384V142.664L14.3696 142.736L15.8996 142.664V143.384L14.7746 143.429V148.271L15.8996 148.316V149.036L14.3696 148.964L12.8396 149.036ZM16.8418 148.28V143.42L17.5618 142.7H20.8918L21.6118 143.42V148.28L20.8918 149H17.5618L16.8418 148.28ZM17.6518 143.42V148.28H20.8018V143.42H17.6518ZM22.5153 146.525V145.715H24.8553V146.525H22.5153ZM29.6239 149H25.4839V148.28H29.5339V146.12H26.0239V145.4H29.3539V143.42H25.5739V142.7H29.4439L30.1639 143.42V145.319L29.6509 145.706L30.3439 146.246V148.28L29.6239 149Z" fill="white"/>
</svg>
