<svg width="145" height="158" viewBox="0 0 145 158" fill="none" xmlns="http://www.w3.org/2000/svg">
<path d="M5.66666 155C5.66666 156.473 4.47276 157.667 3 157.667C1.52724 157.667 0.333336 156.473 0.333336 155C0.333336 153.527 1.52724 152.333 3 152.333C4.47276 152.333 5.66666 153.527 5.66666 155ZM50 27L49.5306 26.8277L49.651 26.5H50V27ZM43.6667 140.5C43.6667 141.973 42.4728 143.167 41 143.167C39.5272 143.167 38.3333 141.973 38.3333 140.5C38.3333 139.027 39.5272 137.833 41 137.833C42.4728 137.833 43.6667 139.027 43.6667 140.5ZM2.53064 154.828L49.5306 26.8277L50.4694 27.1723L3.46936 155.172L2.53064 154.828ZM50 26.5H122V27.5H50V26.5ZM40.5016 140.46L49.5016 26.9605L50.4984 27.0395L41.4984 140.54L40.5016 140.46Z" fill="white"/>
<path d="M50.54 7V0.7H51.566L53.51 4.102L55.454 0.7H56.48V7H55.688V1.69L53.78 5.02H53.24L51.332 1.69V7H50.54ZM57.5175 6.19V2.77L58.3275 1.96H61.1175L61.9275 2.77V6.19L61.1175 7H58.3275L57.5175 6.19ZM58.3275 6.28H61.1175V2.68H58.3275V6.28ZM63.2289 8.26V7.54H66.5589V6.28H63.7239L62.9139 5.47V2.77L63.8139 1.96H67.3689V7.414L66.5229 8.26H63.2289ZM63.7239 2.68V5.56H66.5589V2.68H63.7239ZM68.2811 8.26V7.54H70.6301L71.0171 6.28H69.4781L68.0111 1.96H68.8301L70.0541 5.56H71.2331L72.3941 1.96H73.2131L71.1971 8.26H68.2811ZM78.3486 1.96V7H77.5386V2.662H75.4416L75.0546 7H73.4436V6.262H74.3616L74.6766 2.662H73.8936V1.96H78.3486ZM79.4296 7V1.96H80.2396V3.22H83.1646L83.9746 4.03V6.19L83.1646 7H79.4296ZM80.2396 6.28H83.1646V3.94H80.2396V6.28ZM87.3486 8.26V1.96H91.0836L91.8936 2.77V6.19L91.0836 7H88.1586V8.26H87.3486ZM91.0836 2.68H88.1586V6.28H91.0836V2.68ZM92.8396 6.19V4.12L96.4396 4.03V2.68H93.0196V1.96H96.4396L97.2496 2.77V7H93.6496L92.8396 6.19ZM93.6496 4.84V6.28H96.4396V4.66L93.6496 4.84ZM98.2811 6.19V2.77L99.0911 1.96H102.421V2.68H99.0911V6.28H102.421V7H99.0911L98.2811 6.19ZM107.1 1.96V6.28H109.35V1.96H110.16V7H103.23V1.96H104.04V6.28H106.29V1.96H107.1ZM116.007 7H115.197V2.797L112.299 7H111.237V1.96H112.047V6.163L114.945 1.96H116.007V7ZM117.354 8.26V1.96H121.089L121.899 2.77V6.19L121.089 7H118.164V8.26H117.354ZM121.089 2.68H118.164V6.28H121.089V2.68ZM122.891 6.19V2.77L123.701 1.96H127.211V4.75H123.701V6.28H127.031V7H123.701L122.891 6.19ZM123.701 4.12L126.437 4.03V2.68H123.701V4.12ZM128.244 7V1.96H129.054V4.12H131.934V1.96H132.744V7H131.934V4.84H129.054V7H128.244ZM138.595 7H137.785V2.797L134.887 7H133.825V1.96H134.635V6.163L137.533 1.96H138.595V7ZM139.942 4.75V2.68L140.662 1.96H144.802V7H143.992V5.38H141.166L140.365 7H139.492L140.419 5.227L139.942 4.75ZM140.752 4.66H143.992V2.68H140.752V4.66ZM50.54 17.28V12.42L51.26 11.7H54.59V12.438H51.35V17.262H54.68V18H51.26L50.54 17.28ZM55.1282 18L56.7662 11.7H58.9802L60.6182 18H59.7902L59.3762 16.38H56.3702L55.9562 18H55.1282ZM56.5502 15.678H59.1962L58.3592 12.402H57.3872L56.5502 15.678ZM61.3418 18V11.7H62.4938L65.5718 17.055V11.7H66.3818V18H65.2298L62.1518 12.645V18H61.3418ZM67.0089 18L69.9519 11.7H70.7889L67.8459 18H67.0089ZM71.4228 17.28V11.7H72.2328V17.28H75.3828V11.7H76.1928V17.28L75.4728 18H72.1428L71.4228 17.28ZM76.9163 18L78.5543 11.7H80.7683L82.4063 18H81.5783L81.1643 16.38H78.1583L77.7443 18H76.9163ZM78.3383 15.678H80.9843L80.1473 12.402H79.1753L78.3383 15.678ZM87.9898 12.42V15.21L87.4858 15.714L88.4398 18H87.5668L86.6758 15.84H83.9398V18H83.1298V11.7H87.2698L87.9898 12.42ZM83.9398 15.12H87.1798V12.42H83.9398V15.12ZM90.6463 18V12.42H88.7113V11.7H93.3913V12.42H91.4563V18H90.6463Z" fill="white"/>
</svg>
