<svg width="108" height="71" viewBox="0 0 108 71" fill="none" xmlns="http://www.w3.org/2000/svg">
<path d="M102.333 68C102.333 69.4728 103.527 70.6667 105 70.6667C106.473 70.6667 107.667 69.4728 107.667 68C107.667 66.5272 106.473 65.3333 105 65.3333C103.527 65.3333 102.333 66.5272 102.333 68ZM72.5 25L72.8989 24.6985L72.7488 24.5H72.5V25ZM105.399 67.6985L72.8989 24.6985L72.1011 25.3015L104.601 68.3015L105.399 67.6985ZM72.5 24.5H0.5V25.5H72.5V24.5Z" fill="white"/>
<path d="M0.54 7V0.7H5.31V7H4.5V1.42H1.35V7H0.54ZM6.34852 6.19V2.77L7.15852 1.96H9.94852L10.7585 2.77V6.19L9.94852 7H7.15852L6.34852 6.19ZM7.15852 6.28H9.94852V2.68H7.15852V6.28ZM16.29 1.96V7H15.48V2.662H13.383L12.996 7H11.385V6.262H12.303L12.618 2.662H11.835V1.96H16.29ZM17.3711 7V1.96H18.1811V3.22H21.1061L21.9161 4.03V6.19L21.1061 7H17.3711ZM18.1811 6.28H21.1061V3.94H18.1811V6.28ZM27.2271 6.28L26.5071 7H22.7271V6.28H26.4171V4.786H23.1771V4.066H26.2371V2.68H22.8171V1.96H26.3271L27.0471 2.68V3.985L26.5341 4.372L27.2271 4.912V6.28ZM28.2157 6.19V2.77L29.0257 1.96H31.8157L32.6257 2.77V6.19L31.8157 7H29.0257L28.2157 6.19ZM29.0257 6.28H31.8157V2.68H29.0257V6.28ZM33.6572 1.96H37.2572L37.9772 2.68V3.985L37.4642 4.372L38.1572 4.912V6.28L37.4372 7H33.6572V1.96ZM34.4672 4.066H37.1672V2.68H34.4672V4.066ZM34.4672 6.28H37.3472V4.786H34.4672V6.28ZM39.0604 6.19V4.12L42.6604 4.03V2.68H39.2404V1.96H42.6604L43.4704 2.77V7H39.8704L39.0604 6.19ZM39.8704 4.84V6.28H42.6604V4.66L39.8704 4.84ZM46.9768 7H46.1668V2.68H44.1868V1.96H48.9568V2.68H46.9768V7ZM49.6346 6.19V2.77L50.4446 1.96H53.9546V4.75H50.4446V6.28H53.7746V7H50.4446L49.6346 6.19ZM50.4446 4.12L53.1806 4.03V2.68H50.4446V4.12ZM59.4882 1.96V7H58.6782V2.662H56.5812L56.1942 7H54.5832V6.262H55.5012L55.8162 2.662H55.0332V1.96H59.4882ZM60.5693 7V1.96H61.3793V3.22H64.3043L65.1143 4.03V6.19L64.3043 7H60.5693ZM61.3793 6.28H64.3043V3.94H61.3793V6.28ZM66.1054 6.19V2.77L66.9154 1.96H70.2454V2.68H66.9154V6.28H70.2454V7H66.9154L66.1054 6.19ZM71.0546 7V1.96H71.8646V4.021H73.6106L74.9966 1.96H75.9326L74.3396 4.282L76.0046 7H75.0866L73.7276 4.741H71.8646V7H71.0546ZM81.4057 7H80.5957V2.797L77.6977 7H76.6357V1.96H77.4457V6.163L80.3437 1.96H81.4057V7ZM82.7079 6.19V2.77L83.5179 1.96H87.0279V4.75H83.5179V6.28H86.8479V7H83.5179L82.7079 6.19ZM83.5179 4.12L86.2539 4.03V2.68H83.5179V4.12ZM0.54 18V12.96H1.35V15.021H3.096L4.482 12.96H5.418L3.825 15.282L5.49 18H4.572L3.213 15.741H1.35V18H0.54ZM6.12105 18V12.96H6.93105V15.12H9.81105V12.96H10.6211V18H9.81105V15.84H6.93105V18H6.12105ZM11.6571 17.19V13.77L12.4671 12.96H15.2571L16.0671 13.77V17.19L15.2571 18H12.4671L11.6571 17.19ZM12.4671 17.28H15.2571V13.68H12.4671V17.28ZM17.1436 18V12.96H21.6436V18H20.8336V13.68H17.9536V18H17.1436ZM22.7675 18V12.96H23.5775V15.021H25.3235L26.7095 12.96H27.6455L26.0525 15.282L27.7175 18H26.7995L25.4405 15.741H23.5775V18H22.7675ZM33.1186 18H32.3086V13.797L29.4106 18H28.3486V12.96H29.1586V17.163L32.0566 12.96H33.1186V18ZM41.5737 18H40.7637V13.797L37.8657 18H36.8037V12.96H37.6137V17.163L40.5117 12.96H41.5737V18ZM50.0288 18H49.2188V13.797L46.3208 18H45.2588V12.96H46.0688V17.163L48.9668 12.96H50.0288V18ZM51.3759 18V12.96H52.1859V15.12H55.0659V12.96H55.8759V18H55.0659V15.84H52.1859V18H51.3759ZM57.227 19.26V18.54H60.557V17.28H57.722L56.912 16.47V13.77L57.812 12.96H61.367V18.414L60.521 19.26H57.227ZM57.722 13.68V16.56H60.557V13.68H57.722ZM67.2202 18H66.4102V13.797L63.5122 18H62.4502V12.96H63.2602V17.163L66.1582 12.96H67.2202V18ZM68.5673 18V12.96H69.3773V15.021H71.1233L72.5093 12.96H73.4453L71.8523 15.282L73.5173 18H72.5993L71.2403 15.741H69.3773V18H68.5673ZM74.0584 17.19V15.12L77.6584 15.03V13.68H74.2384V12.96H77.6584L78.4684 13.77V18H74.8684L74.0584 17.19ZM74.8684 15.84V17.28H77.6584V15.66L74.8684 15.84ZM81.9749 18H81.1649V13.68H79.1849V12.96H83.9549V13.68H81.9749V18ZM84.6327 17.19V13.77L85.4427 12.96H88.2327L89.0427 13.77V17.19L88.2327 18H85.4427L84.6327 17.19ZM85.4427 17.28H88.2327V13.68H85.4427V17.28ZM90.0742 19.26V12.96H93.8092L94.6192 13.77V17.19L93.8092 18H90.8842V19.26H90.0742ZM93.8092 13.68H90.8842V17.28H93.8092V13.68ZM95.6552 18V12.96H96.4652V14.22H99.3902L100.2 15.03V17.19L99.3902 18H95.6552ZM101.235 18V12.96H102.045V18H101.235ZM96.4652 17.28H99.3902V14.94H96.4652V17.28Z" fill="white"/>
</svg>
