<svg width="115" height="109" viewBox="0 0 115 109" fill="none" xmlns="http://www.w3.org/2000/svg">
<path d="M82.5 13V12.5H82.8678L82.9773 12.8512L82.5 13ZM114.167 106C114.167 107.473 112.973 108.667 111.5 108.667C110.027 108.667 108.833 107.473 108.833 106C108.833 104.527 110.027 103.333 111.5 103.333C112.973 103.333 114.167 104.527 114.167 106ZM82.5 13.5H0.5V12.5H82.5V13.5ZM82.9773 12.8512L111.977 105.851L111.023 106.149L82.0227 13.1488L82.9773 12.8512Z" fill="white"/>
<path d="M5.58 7H4.77V1.537L1.692 7H0.54V0.7H1.35V6.163L4.428 0.7H5.58V7ZM6.65719 7V1.96H7.46719V4.12H10.3472V1.96H11.1572V7H10.3472V4.84H7.46719V7H6.65719ZM12.5082 8.26V7.54H15.8382V6.28H13.0032L12.1932 5.47V2.77L13.0932 1.96H16.6482V7.414L15.8022 8.26H12.5082ZM13.0032 2.68V5.56H15.8382V2.68H13.0032ZM22.5014 7H21.6914V2.797L18.7934 7H17.7314V1.96H18.5414V6.163L21.4394 1.96H22.5014V7ZM23.8486 7V1.96H24.6586V4.021H26.4046L27.7906 1.96H28.7266L27.1336 4.282L28.7986 7H27.8806L26.5216 4.741H24.6586V7H23.8486ZM29.3396 6.19V4.12L32.9396 4.03V2.68H29.5196V1.96H32.9396L33.7496 2.77V7H30.1496L29.3396 6.19ZM30.1496 4.84V6.28H32.9396V4.66L30.1496 4.84ZM37.2561 7H36.4461V2.68H34.4661V1.96H39.2361V2.68H37.2561V7ZM39.9139 6.19V2.77L40.7239 1.96H43.5139L44.3239 2.77V6.19L43.5139 7H40.7239L39.9139 6.19ZM40.7239 6.28H43.5139V2.68H40.7239V6.28ZM45.3554 8.26V1.96H49.0904L49.9004 2.77V6.19L49.0904 7H46.1654V8.26H45.3554ZM49.0904 2.68H46.1654V6.28H49.0904V2.68ZM50.9365 7V1.96H51.7465V3.22H54.6715L55.4815 4.03V6.19L54.6715 7H50.9365ZM56.5165 7V1.96H57.3265V7H56.5165ZM51.7465 6.28H54.6715V3.94H51.7465V6.28ZM60.7451 6.28V0.7H61.5551V6.28H64.7051V0.7H65.5151V6.28L64.7951 7H61.4651L60.7451 6.28ZM66.2386 7L67.8766 0.7H70.0906L71.7286 7H70.9006L70.4866 5.38H67.4806L67.0666 7H66.2386ZM67.6606 4.678H70.3066L69.4696 1.402H68.4976L67.6606 4.678ZM77.3121 1.42V4.21L76.8081 4.714L77.7621 7H76.8891L75.9981 4.84H73.2621V7H72.4521V0.7H76.5921L77.3121 1.42ZM73.2621 4.12H76.5021V1.42H73.2621V4.12ZM79.9685 7V1.42H78.0335V0.7H82.7135V1.42H80.7785V7H79.9685Z" fill="white"/>
</svg>
