<svg width="78" height="194" viewBox="0 0 78 194" fill="none" xmlns="http://www.w3.org/2000/svg">
<path d="M0.333333 191C0.333333 192.473 1.52724 193.667 3 193.667C4.47276 193.667 5.66667 192.473 5.66667 191C5.66667 189.527 4.47276 188.333 3 188.333C1.52724 188.333 0.333333 189.527 0.333333 191ZM39 13.5V13H38.5912L38.51 13.4006L39 13.5ZM3.49002 191.099L39.49 13.5994L38.51 13.4006L2.50998 190.901L3.49002 191.099ZM39 14H77.5V13H39V14Z" fill="white"/>
<path d="M40.54 6.28V1.42L41.26 0.7H45.04V1.42H41.35V6.28H44.536V4.057H42.61V3.355H45.31V7H41.26L40.54 6.28ZM51.0735 1.42V4.93L50.3535 5.65H47.2035V7H46.3935V0.7H50.3535L51.0735 1.42ZM47.2035 4.93H50.2635V1.42H47.2035V4.93ZM51.8396 7.036V6.316L52.9646 6.271V1.429L51.8396 1.384V0.663999L53.3696 0.736L54.8996 0.663999V1.384L53.7746 1.429V6.271L54.8996 6.316V7.036L53.3696 6.964L51.8396 7.036ZM55.8418 6.28V1.42L56.5618 0.7H60.1618L60.8818 1.42V6.28L60.1618 7H56.5618L55.8418 6.28ZM56.6518 1.42V6.28H60.0718V1.42H56.6518ZM61.7789 4.525V3.715H64.1189V4.525H61.7789ZM64.8825 7.036V6.316L66.0975 6.271V1.654L64.9725 1.735V1.06L66.9075 0.7V6.271L67.9425 6.316V7.036L66.4125 6.964L64.8825 7.036Z" fill="white"/>
</svg>
