<svg width="110" height="40" viewBox="0 0 110 40" fill="none" xmlns="http://www.w3.org/2000/svg">
<path d="M65.5 39L65.2516 39.4339L65.367 39.5H65.5V39ZM0.833333 3.5C0.833333 4.97276 2.02724 6.16667 3.5 6.16667C4.97276 6.16667 6.16667 4.97276 6.16667 3.5C6.16667 2.02724 4.97276 0.833333 3.5 0.833333C2.02724 0.833333 0.833333 2.02724 0.833333 3.5ZM30.8333 7.5C30.8333 8.97276 32.0272 10.1667 33.5 10.1667C34.9728 10.1667 36.1667 8.97276 36.1667 7.5C36.1667 6.02724 34.9728 4.83333 33.5 4.83333C32.0272 4.83333 30.8333 6.02724 30.8333 7.5ZM65.5 39.5H109V38.5H65.5V39.5ZM65.7484 38.5661L3.74845 3.06609L3.25155 3.93391L65.2516 39.4339L65.7484 38.5661ZM65.8508 38.6437L33.8508 7.14367L33.1492 7.85633L65.1492 39.3563L65.8508 38.6437Z" fill="white"/>
<path d="M66.54 36V30.96H70.23L71.04 31.77V36H70.23V31.68H67.35V36H66.54ZM76.9811 30.42V33.21L76.4771 33.714L77.4311 36H76.5581L75.6671 33.84H72.9311V36H72.1211V29.7H76.2611L76.9811 30.42ZM72.9311 33.12H76.1711V30.42H72.9311V33.12ZM78.0625 36V29.7H82.3825V30.42H78.8725V32.94H82.2025V33.66H78.8725V36H78.0625ZM88.0553 35.28V36H83.1953V32.832L87.2453 32.382V30.42H83.2853V29.7H87.3353L88.0553 30.42V32.985L84.0053 33.435V35.28H88.0553ZM88.9567 34.38L89.2627 29.7H90.0367L89.7667 33.66H93.0067V29.7H93.8167V36H93.0067V34.38H88.9567ZM94.8935 36V29.7H95.7035V35.28H98.7095V33.48H99.4835V36H94.8935ZM100.29 35.28V30.42L101.01 29.7H104.34L105.06 30.42V35.28L104.34 36H101.01L100.29 35.28ZM101.1 30.42V35.28H104.25V30.42H101.1ZM106.009 36.036V35.316L107.224 35.271V30.654L106.099 30.735V30.06L108.034 29.7V35.271L109.069 35.316V36.036L107.539 35.964L106.009 36.036Z" fill="white"/>
</svg>
