<svg width="108" height="181" viewBox="0 0 108 181" fill="none" xmlns="http://www.w3.org/2000/svg">
<path d="M18.5 180V180.5H18.0419L18.0019 180.044L18.5 180ZM5.66666 3C5.66666 4.47276 4.47276 5.66667 3 5.66667C1.52724 5.66667 0.333336 4.47276 0.333336 3C0.333336 1.52724 1.52724 0.333333 3 0.333333C4.47276 0.333333 5.66666 1.52724 5.66666 3ZM18.5 179.5H107.5V180.5H18.5V179.5ZM18.0019 180.044L2.50191 3.04362L3.49809 2.95638L18.9981 179.956L18.0019 180.044Z" fill="white"/>
<path d="M24.54 163V156.7H25.566L27.51 160.102L29.454 156.7H30.48V163H29.688V157.69L27.78 161.02H27.24L25.332 157.69V163H24.54ZM36.3325 163H35.5225V158.797L32.6245 163H31.5625V157.96H32.3725V162.163L35.2705 157.96H36.3325V163ZM37.6796 163V157.96H38.4896V160.021H40.2356L41.6216 157.96H42.5576L40.9646 160.282L42.6296 163H41.7116L40.3526 160.741H38.4896V163H37.6796ZM43.2607 164.26V157.96H46.9957L47.8057 158.77V162.19L46.9957 163H44.0707V164.26H43.2607ZM46.9957 158.68H44.0707V162.28H46.9957V158.68ZM48.7968 162.19V158.77L49.6068 157.96H52.3968L53.2068 158.77V162.19L52.3968 163H49.6068L48.7968 162.19ZM49.6068 162.28H52.3968V158.68H49.6068V162.28ZM54.2382 163V157.96H55.0482V160.021H56.7942L58.1802 157.96H59.1162L57.5232 160.282L59.1882 163H58.2702L56.9112 160.741H55.0482V163H54.2382ZM59.7743 162.19V158.77L60.5843 157.96H63.3743L64.1843 158.77V162.19L63.3743 163H60.5843L59.7743 162.19ZM60.5843 162.28H63.3743V158.68H60.5843V162.28ZM65.2158 163V157.96H66.0258V160.12H68.9058V157.96H69.7158V163H68.9058V160.84H66.0258V163H65.2158ZM73.2268 163H72.4168V158.68H70.4368V157.96H75.2068V158.68H73.2268V163ZM75.9296 164.26V157.96H79.6646L80.4746 158.77V162.19L79.6646 163H76.7396V164.26H75.9296ZM79.6646 158.68H76.7396V162.28H79.6646V158.68ZM81.4657 162.19V158.77L82.2757 157.96H85.0657L85.8757 158.77V162.19L85.0657 163H82.2757L81.4657 162.19ZM82.2757 162.28H85.0657V158.68H82.2757V162.28ZM91.4072 157.96V163H90.5972V158.662H88.5002L88.1132 163H86.5022V162.262H87.4202L87.7352 158.662H86.9522V157.96H91.4072ZM96.9882 157.96V163H96.1782V158.662H94.0812L93.6942 163H92.0832V162.262H93.0012L93.3162 158.662H92.5332V157.96H96.9882ZM98.0243 162.19V158.77L98.8343 157.96H102.344V160.75H98.8343V162.28H102.164V163H98.8343L98.0243 162.19ZM98.8343 160.12L101.57 160.03V158.68H98.8343V160.12ZM103.378 164.26V157.96H107.113L107.923 158.77V162.19L107.113 163H104.188V164.26H103.378ZM107.113 158.68H104.188V162.28H107.113V158.68ZM24.54 174V167.7H25.35V170.445H27.375L28.788 167.7H29.715L28.14 170.67L29.85 174H28.914L27.492 171.165H25.35V174H24.54ZM30.2585 174.036V173.316L31.4735 173.271V168.654L30.3485 168.735V168.06L32.2835 167.7V173.271L33.3185 173.316V174.036L31.7885 173.964L30.2585 174.036ZM38.3107 167.7L39.0307 168.42V173.28L38.3107 174H34.6207V173.28H38.2207V171.66H34.8907L34.2607 171.03V168.42L34.9807 167.7H38.3107ZM38.2207 168.42H35.0707V170.94H38.2207V168.42ZM40.7442 174L40.0242 173.28V171.246L40.7172 170.706L40.2042 170.319V168.42L40.9242 167.7H44.2542L44.9742 168.42V170.319L44.4612 170.706L45.1542 171.246V173.28L44.4342 174H40.7442ZM41.0142 170.355H44.1642V168.42H41.0142V170.355ZM40.8342 173.28H44.3442V171.075H40.8342V173.28ZM46.8635 174L46.1435 173.28V168.42L46.8635 167.7H50.5535V168.42H46.9535V170.04H50.2835L50.9135 170.67V173.28L50.1935 174H46.8635ZM46.9535 173.28H50.1035V170.76H46.9535V173.28ZM56.677 168.42V170.229L56.254 170.616L56.857 171.156V173.28L56.137 174H51.997V167.7H55.957L56.677 168.42ZM52.807 170.355H55.867V168.42H52.807V170.355ZM52.807 173.28H56.047V171.075H52.807V173.28ZM57.7539 174V167.7H62.0739V168.42H58.5639V170.4H61.6239V171.12H58.5639V173.28H62.1639V174H57.7539ZM67.0246 167.7L67.7446 168.42V173.28L67.0246 174H63.3346V173.28H66.9346V171.66H63.6046L62.9746 171.03V168.42L63.6946 167.7H67.0246ZM66.9346 168.42H63.7846V170.94H66.9346V168.42ZM73.6881 173.28V174H68.8281V170.832L72.8781 170.382V168.42H68.9181V167.7H72.9681L73.6881 168.42V170.985L69.6381 171.435V173.28H73.6881ZM74.7695 173.28V168.42L75.4895 167.7H79.0895L79.8095 168.42V173.46L79.2155 173.919L80.1695 174.081V174.81L75.4895 174L74.7695 173.28ZM75.5795 173.289L78.9995 173.883V168.42H75.5795V173.289ZM80.7517 174.036V173.316L81.8767 173.271V168.429L80.7517 168.384V167.664L82.2817 167.736L83.8117 167.664V168.384L82.6867 168.429V173.271L83.8117 173.316V174.036L82.2817 173.964L80.7517 174.036Z" fill="white"/>
</svg>
