<svg width="112" height="34" viewBox="0 0 112 34" fill="none" xmlns="http://www.w3.org/2000/svg">
<path d="M80.5 33L80.3221 33.4673L80.4081 33.5H80.5V33ZM0.333333 3.5C0.333333 4.97276 1.52724 6.16667 3 6.16667C4.47276 6.16667 5.66667 4.97276 5.66667 3.5C5.66667 2.02724 4.47276 0.833333 3 0.833333C1.52724 0.833333 0.333333 2.02724 0.333333 3.5ZM80.6779 32.5327L3.17787 3.03271L2.82213 3.96729L80.3221 33.4673L80.6779 32.5327ZM80.5 33.5H112V32.5H80.5V33.5Z" fill="white"/>
<path d="M81.8779 29.28V24.42L82.5979 23.7H86.3779V24.42H82.6879V29.28H85.8739V27.057H83.9479V26.355H86.6479V30H82.5979L81.8779 29.28ZM92.4114 24.42V27.93L91.6914 28.65H88.5414V30H87.7314V23.7H91.6914L92.4114 24.42ZM88.5414 27.93H91.6014V24.42H88.5414V27.93ZM93.1775 30.036V29.316L94.3025 29.271V24.429L93.1775 24.384V23.664L94.7075 23.736L96.2375 23.664V24.384L95.1125 24.429V29.271L96.2375 29.316V30.036L94.7075 29.964L93.1775 30.036ZM97.1796 29.28V24.42L97.8996 23.7H101.5L102.22 24.42V29.28L101.5 30H97.8996L97.1796 29.28ZM97.9896 24.42V29.28H101.41V24.42H97.9896ZM103.117 27.525V26.715H105.457V27.525H103.117ZM106.175 28.38L106.481 23.7H107.255L106.985 27.66H110.225V23.7H111.035V30H110.225V28.38H106.175Z" fill="white"/>
</svg>

