<svg width="115" height="33" viewBox="0 0 115 33" fill="none" xmlns="http://www.w3.org/2000/svg">
<path d="M77.6165 9.52954L77.5716 4.66975L78.2849 3.94312L82.0647 3.90818L82.0714 4.62815L78.3816 4.66226L78.4265 9.52205L81.6123 9.4926L81.5918 7.2697L79.6659 7.2875L79.6594 6.58553L82.3593 6.56057L82.393 10.2054L78.3431 10.2429L77.6165 9.52954ZM88.1047 4.57238L88.1371 8.08223L87.4238 8.80886L84.2739 8.83797L84.2864 10.1879L83.4764 10.1954L83.4182 3.89567L87.378 3.85907L88.1047 4.57238ZM84.2673 8.118L87.3271 8.08972L87.2947 4.57987L84.2348 4.60815L84.2673 8.118ZM88.9226 10.1811L88.9159 9.46109L90.0405 9.40569L89.9957 4.5639L88.8703 4.5293L88.8637 3.80933L90.3943 3.86719L91.9236 3.78105L91.9302 4.50102L90.8057 4.55641L90.8504 9.39821L91.9758 9.43281L91.9825 10.1528L90.4519 10.0949L88.9226 10.1811ZM92.9176 9.3881L92.8727 4.52831L93.586 3.80168L97.1859 3.76841L97.9125 4.48172L97.9574 9.34151L97.2441 10.0681L93.6442 10.1014L92.9176 9.3881ZM93.6827 4.52082L93.7276 9.38061L97.1474 9.349L97.1025 4.48921L93.6827 4.52082ZM98.8383 7.5783L98.8308 6.76833L101.171 6.7467L101.178 7.55667L98.8383 7.5783ZM106.953 9.25836L106.959 9.97833L102.1 10.0233L102.07 6.85539L106.116 6.36797L106.098 4.40606L102.138 4.44266L102.131 3.72269L106.181 3.68526L106.908 4.39857L106.932 6.96346L102.886 7.45088L102.903 9.2958L106.953 9.25836Z" fill="white"/>
<path d="M5.66666 30C5.66666 31.4728 4.47276 32.6667 3 32.6667C1.52724 32.6667 0.333336 31.4728 0.333336 30C0.333336 28.5272 1.52724 27.3333 3 27.3333C4.47276 27.3333 5.66666 28.5272 5.66666 30ZM68.8018 30L69.0241 30.4479L68.9191 30.5H68.8018V30ZM3 29.5H68.8018V30.5H3V29.5ZM68.5796 29.5521L94.7777 16.5521L95.2223 17.4479L69.0241 30.4479L68.5796 29.5521Z" fill="white"/>
</svg>
