<svg width="130" height="108" viewBox="0 0 130 108" fill="none" xmlns="http://www.w3.org/2000/svg">
<path d="M0.333333 105C0.333333 106.473 1.52724 107.667 3 107.667C4.47276 107.667 5.66667 106.473 5.66667 105C5.66667 103.527 4.47276 102.333 3 102.333C1.52724 102.333 0.333333 103.527 0.333333 105ZM22.5 14.5V14H22.0963L22.0112 14.3947L22.5 14.5ZM3.48878 105.105L22.9888 14.6053L22.0112 14.3947L2.51122 104.895L3.48878 105.105ZM22.5 15H100.5V14H22.5V15Z" fill="white"/>
<path d="M27.22 1.42V4.93L26.5 5.65H23.35V7H22.54V0.7H26.5L27.22 1.42ZM23.35 4.93H26.41V1.42H23.35V4.93ZM28.0311 6.19V4.12L31.6311 4.03V2.68H28.2111V1.96H31.6311L32.4411 2.77V7H28.8411L28.0311 6.19ZM28.8411 4.84V6.28H31.6311V4.66L28.8411 4.84ZM37.7925 6.28L37.0725 7H33.2925V6.28H36.9825V4.786H33.7425V4.066H36.8025V2.68H33.3825V1.96H36.8925L37.6125 2.68V3.985L37.0995 4.372L37.7925 4.912V6.28ZM39.5461 7V2.95L39.8161 2.68H38.3761V1.96H40.3561V3.22H43.2811L44.0911 4.03V6.19L43.2811 7H39.5461ZM40.3561 6.28H43.2811V3.94H40.3561V6.28ZM45.0829 6.19V2.77L45.8929 1.96H49.4029V4.75H45.8929V6.28H49.2229V7H45.8929L45.0829 6.19ZM45.8929 4.12L48.6289 4.03V2.68H45.8929V4.12ZM50.4365 7V1.96H51.4625L53.1365 4.534L54.8105 1.96H55.8365V7H55.0445V2.86L53.4065 5.38H52.8665L51.2285 2.86V7H50.4365ZM59.5219 8.26V7.54H62.8519V6.28H60.0169L59.2069 5.47V2.77L60.1069 1.96H63.6619V7.414L62.8159 8.26H59.5219ZM60.0169 2.68V5.56H62.8519V2.68H60.0169ZM69.2451 1.96V7H68.4351V2.662H66.3381L65.9511 7H64.3401V6.262H65.2581L65.5731 2.662H64.7901V1.96H69.2451ZM70.3261 4.75V2.68L71.0461 1.96H75.1861V7H74.3761V5.38H71.5501L70.7491 7H69.8761L70.8031 5.227L70.3261 4.75ZM71.1361 4.66H74.3761V2.68H71.1361V4.66ZM80.1804 7V1.42H78.2454V0.7H82.9254V1.42H80.9904V7H80.1804ZM83.6416 7V0.7H87.9616V1.42H84.4516V3.94H87.7816V4.66H84.4516V7H83.6416ZM90.3494 7V1.42H88.4144V0.7H93.0944V1.42H91.1594V7H90.3494ZM96.1484 7V1.96H97.1744L98.8484 4.534L100.522 1.96H101.548V7H100.756V2.86L99.1184 5.38H98.5784L96.9404 2.86V7H96.1484ZM102.581 6.19V2.77L103.391 1.96H106.181L106.991 2.77V6.19L106.181 7H103.391L102.581 6.19ZM103.391 6.28H106.181V2.68H103.391V6.28ZM108.292 8.26V7.54H111.622V6.28H108.787L107.977 5.47V2.77L108.877 1.96H112.432V7.414L111.586 8.26H108.292ZM108.787 2.68V5.56H111.622V2.68H108.787ZM113.345 8.26V7.54H115.694L116.081 6.28H114.542L113.075 1.96H113.894L115.118 5.56H116.297L117.458 1.96H118.277L116.261 8.26H113.345ZM123.412 1.96V7H122.602V2.662H120.505L120.118 7H118.507V6.262H119.425L119.74 2.662H118.957V1.96H123.412ZM124.493 4.75V2.68L125.213 1.96H129.353V7H128.543V5.38H125.717L124.916 7H124.043L124.97 5.227L124.493 4.75ZM125.303 4.66H128.543V2.68H125.303V4.66Z" fill="white"/>
</svg>
