<svg width="168" height="190" viewBox="0 0 168 190" fill="none" xmlns="http://www.w3.org/2000/svg">
<path d="M102 12.5V12H102.351L102.47 12.3298L102 12.5ZM167.667 186.5C167.667 187.973 166.473 189.167 165 189.167C163.527 189.167 162.333 187.973 162.333 186.5C162.333 185.027 163.527 183.833 165 183.833C166.473 183.833 167.667 185.027 167.667 186.5ZM102 13H1V12H102V13ZM102.47 12.3298L165.47 186.33L164.53 186.67L101.53 12.6702L102.47 12.3298Z" fill="white"/>
<path d="M0.54 7V0.7H1.35V3.445H3.375L4.788 0.7H5.715L4.14 3.67L5.85 7H4.914L3.492 4.165H1.35V7H0.54ZM6.39352 7V1.96H7.20352V4.12H10.0835V1.96H10.8935V7H10.0835V4.84H7.20352V7H6.39352ZM11.9296 6.19V2.77L12.7396 1.96H15.5296L16.3396 2.77V6.19L15.5296 7H12.7396L11.9296 6.19ZM12.7396 6.28H15.5296V2.68H12.7396V6.28ZM17.4161 7V1.96H21.9161V7H21.1061V2.68H18.2261V7H17.4161ZM23.04 7V1.96H23.85V4.021H25.596L26.982 1.96H27.918L26.325 4.282L27.99 7H27.072L25.713 4.741H23.85V7H23.04ZM28.5311 6.19V4.12L32.1311 4.03V2.68H28.7111V1.96H32.1311L32.9411 2.77V7H29.3411L28.5311 6.19ZM29.3411 4.84V6.28H32.1311V4.66L29.3411 4.84ZM36.4004 7V1.96H40.9004V7H40.0904V2.68H37.2104V7H36.4004ZM42.0244 8.26V1.96H45.7594L46.5694 2.77V6.19L45.7594 7H42.8344V8.26H42.0244ZM45.7594 2.68H42.8344V6.28H45.7594V2.68ZM47.5604 6.19V2.77L48.3704 1.96H51.1604L51.9704 2.77V6.19L51.1604 7H48.3704L47.5604 6.19ZM48.3704 6.28H51.1604V2.68H48.3704V6.28ZM53.8119 7L53.0019 6.19V1.51L53.8119 0.7H57.4119V1.42H53.8119V2.41H56.8269L57.5469 3.13V6.19L56.7369 7H53.8119ZM53.8119 6.28H56.7369V3.13H53.8119V6.28ZM58.412 8.26V7.54H60.761L61.148 6.28H59.609L58.142 1.96H58.961L60.185 5.56H61.364L62.525 1.96H63.344L61.328 8.26H58.412ZM68.1195 7H67.3095V4.741H65.8065L64.4475 7H63.5295L65.1945 4.282L63.6105 1.96H64.5375L65.8875 4.021H67.3095V1.96H68.1195V4.021H69.5415L70.8915 1.96H71.8185L70.2345 4.282L71.8995 7H70.9815L69.6225 4.741H68.1195V7ZM72.8012 8.26V7.54H76.1312V6.28H73.2962L72.4862 5.47V2.77L73.3862 1.96H76.9412V7.414L76.0952 8.26H72.8012ZM73.2962 2.68V5.56H76.1312V2.68H73.2962ZM77.9794 6.19V2.77L78.7894 1.96H82.2994V4.75H78.7894V6.28H82.1194V7H78.7894L77.9794 6.19ZM78.7894 4.12L81.5254 4.03V2.68H78.7894V4.12ZM83.333 7V1.96H84.143V4.12H87.023V1.96H87.833V7H87.023V4.84H84.143V7H83.333ZM93.684 7H92.874V2.797L89.976 7H88.914V1.96H89.724V6.163L92.622 1.96H93.684V7ZM95.0312 4.75V2.68L95.7512 1.96H99.8912V7H99.0812V5.38H96.2552L95.4542 7H94.5812L95.5082 5.227L95.0312 4.75ZM95.8412 4.66H99.0812V2.68H95.8412V4.66Z" fill="white"/>
</svg>
