<svg width="177" height="189" viewBox="0 0 177 189" fill="none" xmlns="http://www.w3.org/2000/svg">
<path d="M87.5742 188V188.5H87.2533L87.1196 188.208L87.5742 188ZM5.66667 3.5C5.66667 4.97276 4.47276 6.16667 3 6.16667C1.52724 6.16667 0.333328 4.97276 0.333328 3.5C0.333328 2.02724 1.52724 0.833333 3 0.833333C4.47276 0.833333 5.66667 2.02724 5.66667 3.5ZM87.5742 187.5H177V188.5H87.5742V187.5ZM87.1196 188.208L2.54547 3.70835L3.45453 3.29165L88.0287 187.792L87.1196 188.208Z" fill="white"/>
<path d="M99.22 177.42V179.229L98.797 179.616L99.4 180.156V182.28L98.68 183H94.54V176.7H98.5L99.22 177.42ZM95.35 179.355H98.41V177.42H95.35V179.355ZM95.35 182.28H98.59V180.075H95.35V182.28ZM100.297 183V177.96H101.107V180.12H103.987V177.96H104.797V183H103.987V180.84H101.107V183H100.297ZM105.833 182.19V178.77L106.643 177.96H110.153V180.75H106.643V182.28H109.973V183H106.643L105.833 182.19ZM106.643 180.12L109.379 180.03V178.68H106.643V180.12ZM115.056 177.96V182.28H117.306V177.96H118.116V183H111.186V177.96H111.996V182.28H114.246V177.96H115.056ZM119.193 183V177.96H120.003V180.12H122.883V177.96H123.693V183H122.883V180.84H120.003V183H119.193ZM124.729 182.19V178.77L125.539 177.96H129.049V180.75H125.539V182.28H128.869V183H125.539L124.729 182.19ZM125.539 180.12L128.275 180.03V178.68H125.539V180.12ZM130.038 182.19V178.77L130.848 177.96H134.358V180.75H130.848V182.28H134.178V183H130.848L130.038 182.19ZM130.848 180.12L133.584 180.03V178.68H130.848V180.12ZM137.774 183V177.96H142.274V183H141.464V178.68H138.584V183H137.774ZM148.168 183H147.358V178.797L144.46 183H143.398V177.96H144.208V182.163L147.106 177.96H148.168V183ZM151.946 183H151.136V178.68H149.156V177.96H153.926V178.68H151.946V183ZM154.558 182.19V180.12L158.158 180.03V178.68H154.738V177.96H158.158L158.968 178.77V183H155.368L154.558 182.19ZM155.368 180.84V182.28H158.158V180.66L155.368 180.84ZM160.045 183V177.96H160.855V180.12H163.735V177.96H164.545V183H163.735V180.84H160.855V183H160.045ZM170.396 183H169.586V178.797L166.688 183H165.626V177.96H166.436V182.163L169.334 177.96H170.396V183ZM171.698 182.19V178.77L172.508 177.96H176.018V180.75H172.508V182.28H175.838V183H172.508L171.698 182.19ZM172.508 180.12L175.244 180.03V178.68H172.508V180.12Z" fill="white"/>
</svg>
