<svg width="549" height="112" viewBox="0 0 549 112" fill="none" xmlns="http://www.w3.org/2000/svg">
<path d="M207.954 51.0211L208.115 50.0342L208.035 50.0211L207.954 50.0211L207.954 51.0211ZM539.049 102.692C537.38 105.119 537.995 108.44 540.422 110.109C542.849 111.778 546.169 111.163 547.838 108.736C549.507 106.309 548.893 102.989 546.466 101.32C544.039 99.6507 540.718 100.265 539.049 102.692ZM207.793 52.0081L543.283 106.701L543.605 104.727L208.115 50.0342L207.793 52.0081ZM207.954 50.0211L0.00036181 50.0211L0.000355878 52.0211L207.954 52.0212L207.954 50.0211Z" fill="white"/>
<path d="M2.2 14V-9.53674e-07H12.8V14H11V1.6H4V14H2.2ZM15.1078 12.2V4.6L16.9078 2.8H23.1078L24.9078 4.6V12.2L23.1078 14H16.9078L15.1078 12.2ZM16.9078 12.4H23.1078V4.4H16.9078V12.4ZM37.2 2.8V14H35.4V4.36H30.74L29.88 14H26.3V12.36H28.34L29.04 4.36H27.3V2.8H37.2ZM39.6023 14V2.8H41.4023V5.6H47.9023L49.7023 7.4V12.2L47.9023 14H39.6023ZM41.4023 12.4H47.9023V7.2H41.4023V12.4ZM61.5047 12.4L59.9047 14H51.5047V12.4H59.7047V9.08H52.5047V7.48H59.3047V4.4H51.7047V2.8H59.5047L61.1047 4.4V7.3L59.9647 8.16L61.5047 9.36V12.4ZM63.7016 12.2V4.6L65.5016 2.8H71.7016L73.5016 4.6V12.2L71.7016 14H65.5016L63.7016 12.2ZM65.5016 12.4H71.7016V4.4H65.5016V12.4ZM75.7938 2.8H83.7938L85.3938 4.4V7.3L84.2538 8.16L85.7938 9.36V12.4L84.1938 14H75.7938V2.8ZM77.5938 7.48H83.5938V4.4H77.5938V7.48ZM77.5938 12.4H83.9938V9.08H77.5938V12.4ZM87.8008 12.2V7.6L95.8008 7.4V4.4H88.2008V2.8H95.8008L97.6008 4.6V14H89.6008L87.8008 12.2ZM89.6008 9.2V12.4H95.8008V8.8L89.6008 9.2ZM105.393 14H103.593V4.4H99.193V2.8H109.793V4.4H105.393V14ZM111.299 12.2V4.6L113.099 2.8H120.899V9H113.099V12.4H120.499V14H113.099L111.299 12.2ZM113.099 7.6L119.179 7.4V4.4H113.099V7.6ZM133.196 2.8V14H131.396V4.36H126.736L125.876 14H122.296V12.36H124.336L125.036 4.36H123.296V2.8H133.196ZM135.598 14V2.8H137.398V5.6H143.898L145.698 7.4V12.2L143.898 14H135.598ZM137.398 12.4H143.898V7.2H137.398V12.4ZM147.901 12.2V4.6L149.701 2.8H157.101V4.4H149.701V12.4H157.101V14H149.701L147.901 12.2ZM158.899 14V2.8H160.699V7.38H164.579L167.659 2.8H169.739L166.199 7.96L169.899 14H167.859L164.839 8.98H160.699V14H158.899ZM181.902 14H180.102V4.66L173.662 14H171.302V2.8H173.102V12.14L179.542 2.8H181.902V14ZM184.795 12.2V4.6L186.595 2.8H194.395V9H186.595V12.4H193.995V14H186.595L184.795 12.2ZM186.595 7.6L192.675 7.4V4.4H186.595V7.6ZM2.2 39V27.8H4V32.38H7.88L10.96 27.8H13.04L9.5 32.96L13.2 39H11.16L8.14 33.98H4V39H2.2ZM14.6023 39V27.8H16.4023V32.6H22.8023V27.8H24.6023V39H22.8023V34.2H16.4023V39H14.6023ZM26.9047 37.2V29.6L28.7047 27.8H34.9047L36.7047 29.6V37.2L34.9047 39H28.7047L26.9047 37.2ZM28.7047 37.4H34.9047V29.4H28.7047V37.4ZM39.0969 39V27.8H49.0969V39H47.2969V29.4H40.8969V39H39.0969ZM51.5945 39V27.8H53.3945V32.38H57.2745L60.3545 27.8H62.4345L58.8945 32.96L62.5945 39H60.5545L57.5345 33.98H53.3945V39H51.5945ZM74.5969 39H72.7969V29.66L66.3569 39H63.9969V27.8H65.7969V37.14L72.2369 27.8H74.5969V39ZM93.3859 39H91.5859V29.66L85.1459 39H82.7859V27.8H84.5859V37.14L91.0259 27.8H93.3859V39ZM112.175 39H110.375V29.66L103.935 39H101.575V27.8H103.375V37.14L109.815 27.8H112.175V39ZM115.169 39V27.8H116.969V32.6H123.369V27.8H125.169V39H123.369V34.2H116.969V39H115.169ZM128.171 41.8V40.2H135.571V37.4H129.271L127.471 35.6V29.6L129.471 27.8H137.371V39.92L135.491 41.8H128.171ZM129.271 29.4V35.8H135.571V29.4H129.271ZM150.378 39H148.578V29.66L142.138 39H139.778V27.8H141.578V37.14L148.018 27.8H150.378V39ZM153.372 39V27.8H155.172V32.38H159.052L162.132 27.8H164.212L160.672 32.96L164.372 39H162.332L159.312 33.98H155.172V39H153.372ZM165.574 37.2V32.6L173.574 32.4V29.4H165.974V27.8H173.574L175.374 29.6V39H167.374L165.574 37.2ZM167.374 34.2V37.4H173.574V33.8L167.374 34.2ZM183.166 39H181.366V29.4H176.966V27.8H187.566V29.4H183.166V39ZM189.073 37.2V29.6L190.873 27.8H197.073L198.873 29.6V37.2L197.073 39H190.873L189.073 37.2ZM190.873 37.4H197.073V29.4H190.873V37.4ZM201.165 41.8V27.8H209.465L211.265 29.6V37.2L209.465 39H202.965V41.8H201.165ZM209.465 29.4H202.965V37.4H209.465V29.4ZM213.567 39V27.8H215.367V30.6H221.867L223.667 32.4V37.2L221.867 39H213.567ZM225.967 39V27.8H227.767V39H225.967ZM215.367 37.4H221.867V32.2H215.367V37.4Z" fill="white"/>
</svg>
