<svg width="575" height="198" viewBox="0 0 575 198" fill="none" xmlns="http://www.w3.org/2000/svg">
<path d="M238.5 196.864L238.5 197.864L238.768 197.864L239.001 197.73L238.5 196.864ZM563.883 3.86687C563.055 6.69362 564.675 9.65638 567.502 10.4844C570.329 11.3124 573.291 9.69206 574.119 6.86531C574.947 4.03856 573.327 1.07581 570.5 0.247811C567.674 -0.580185 564.711 1.04012 563.883 3.86687ZM239.001 197.73L569.502 6.23134L568.5 4.50085L237.998 195.999L239.001 197.73ZM238.5 195.864L0.000892649 195.865L0.000895226 197.865L238.5 197.864L238.5 195.864Z" fill="white"/>
<path d="M12.4 187.366H10.6V175.226L3.76 187.366H1.2V173.366H3V185.506L9.84 173.366H12.4V187.366ZM14.7938 187.366V176.166H16.5938V180.966H22.9938V176.166H24.7938V187.366H22.9938V182.566H16.5938V187.366H14.7938ZM27.7961 190.166V188.566H35.1961V185.766H28.8961L27.0961 183.966V177.966L29.0961 176.166H36.9961V188.286L35.1161 190.166H27.7961ZM28.8961 177.766V184.166H35.1961V177.766H28.8961ZM50.0031 187.366H48.2031V178.026L41.7631 187.366H39.4031V176.166H41.2031V185.506L47.6431 176.166H50.0031V187.366ZM52.9969 187.366V176.166H54.7969V180.746H58.6769L61.7569 176.166H63.8369L60.2969 181.326L63.9969 187.366H61.9569L58.9369 182.346H54.7969V187.366H52.9969ZM65.1992 185.566V180.966L73.1992 180.766V177.766H65.5992V176.166H73.1992L74.9992 177.966V187.366H66.9992L65.1992 185.566ZM66.9992 182.566V185.766H73.1992V182.166L66.9992 182.566ZM82.7914 187.366H80.9914V177.766H76.5914V176.166H87.1914V177.766H82.7914V187.366ZM88.6977 185.566V177.966L90.4977 176.166H96.6977L98.4977 177.966V185.566L96.6977 187.366H90.4977L88.6977 185.566ZM90.4977 185.766H96.6977V177.766H90.4977V185.766ZM100.79 190.166V176.166H109.09L110.89 177.966V185.566L109.09 187.366H102.59V190.166H100.79ZM109.09 177.766H102.59V185.766H109.09V177.766ZM113.192 187.366V176.166H114.992V178.966H121.492L123.292 180.766V185.566L121.492 187.366H113.192ZM125.592 187.366V176.166H127.392V187.366H125.592ZM114.992 185.766H121.492V180.566H114.992V185.766ZM134.989 185.766V173.366H136.789V185.766H143.789V173.366H145.589V185.766L143.989 187.366H136.589L134.989 185.766ZM147.197 187.366L150.837 173.366H155.757L159.397 187.366H157.557L156.637 183.766H149.957L149.037 187.366H147.197ZM150.357 182.206H156.237L154.377 174.926H152.217L150.357 182.206ZM171.805 174.966V181.166L170.685 182.286L172.805 187.366H170.865L168.885 182.566H162.805V187.366H161.005V173.366H170.205L171.805 174.966ZM162.805 180.966H170.005V174.966H162.805V180.966ZM177.708 187.366V174.966H173.408V173.366H183.808V174.966H179.508V187.366H177.708Z" fill="white"/>
</svg>
