<svg width="838" height="165" viewBox="0 0 838 165" fill="none" xmlns="http://www.w3.org/2000/svg">
<path d="M230.064 163.189L230.064 164.189L230.193 164.189L230.317 164.157L230.064 163.189ZM584.382 45.1299C583.554 47.9567 585.174 50.9194 588.001 51.7474C590.828 52.5754 593.79 50.9551 594.618 48.1284C595.446 45.3016 593.826 42.3389 590.999 41.5109C588.172 40.6829 585.21 42.3032 584.382 45.1299ZM826.882 4.23653C826.055 7.06328 827.675 10.026 830.502 10.854C833.328 11.682 836.291 10.0617 837.119 7.23495C837.947 4.4082 836.327 1.44545 833.5 0.61746C830.673 -0.210527 827.71 1.40978 826.882 4.23653ZM230.373 164.141L589.808 47.5804L589.192 45.6779L229.756 162.238L230.373 164.141ZM230.064 162.189L1.00001 162.189L1 164.189L230.064 164.189L230.064 162.189ZM230.317 164.157L832.254 6.7032L831.748 4.76829L229.811 162.222L230.317 164.157Z" fill="white"/>
<path d="M0.2 162V148H10.8V162H9V149.6H2V162H0.2ZM23.8078 162H22.0078V152.66L15.5678 162H13.2078V150.8H15.0078V160.14L21.4478 150.8H23.8078V162ZM32.2016 162H30.4016V152.4H26.0016V150.8H36.6016V152.4H32.2016V162ZM38.0078 160.2V155.6L46.0078 155.4V152.4H38.4078V150.8H46.0078L47.8078 152.6V162H39.8078L38.0078 160.2ZM39.8078 157.2V160.4H46.0078V156.8L39.8078 157.2ZM50.2 162V150.8H52V155.6H58.4V150.8H60.2V162H58.4V157.2H52V162H50.2ZM73.2023 162H71.4023V152.66L64.9623 162H62.6023V150.8H64.4023V160.14L70.8423 150.8H73.2023V162ZM76.0961 160.2V152.6L77.8961 150.8H85.6961V157H77.8961V160.4H85.2961V162H77.8961L76.0961 160.2ZM77.8961 155.6L83.9761 155.4V152.4H77.8961V155.6ZM93.1883 164.8V150.8H101.488L103.288 152.6V160.2L101.488 162H94.9883V164.8H93.1883ZM101.488 152.4H94.9883V160.4H101.488V152.4ZM105.391 160.2V155.6L113.391 155.4V152.4H105.791V150.8H113.391L115.191 152.6V162H107.191L105.391 160.2ZM107.191 157.2V160.4H113.391V156.8L107.191 157.2ZM118.183 164.8V163.2H125.583V160.4H119.283L117.483 158.6V152.6L119.483 150.8H127.383V162.92L125.503 164.8H118.183ZM119.283 152.4V158.8H125.583V152.4H119.283ZM140.39 162H138.59V152.66L132.15 162H129.79V150.8H131.59V160.14L138.03 150.8H140.39V162ZM143.284 160.2V152.6L145.084 150.8H151.284L153.084 152.6V160.2L151.284 162H145.084L143.284 160.2ZM145.084 160.4H151.284V152.4H145.084V160.4ZM155.376 162V150.8H157.656L161.376 156.52L165.096 150.8H167.376V162H165.616V152.8L161.976 158.4H160.776L157.136 152.8V162H155.376ZM169.67 160.2V152.6L171.47 150.8H177.67L179.47 152.6V160.2L177.67 162H171.47L169.67 160.2ZM171.47 160.4H177.67V152.4H171.47V160.4ZM182.363 164.8V163.2H189.763V160.4H183.463L181.663 158.6V152.6L183.663 150.8H191.563V162.92L189.683 164.8H182.363ZM183.463 152.4V158.8H189.763V152.4H183.463ZM193.59 164.8V163.2H198.81L199.67 160.4H196.25L192.99 150.8H194.81L197.53 158.8H200.15L202.73 150.8H204.55L200.07 164.8H193.59ZM215.962 150.8V162H214.162V152.36H209.502L208.642 162H205.062V160.36H207.102L207.802 152.36H206.062V150.8H215.962ZM218.364 157V152.4L219.964 150.8H229.164V162H227.364V158.4H221.084L219.304 162H217.364L219.424 158.06L218.364 157ZM220.164 156.8H227.364V152.4H220.164V156.8Z" fill="white"/>
</svg>
