<svg width="368" height="270" viewBox="0 0 368 270" fill="none" xmlns="http://www.w3.org/2000/svg">
<path d="M136.046 268.67L135.15 269.115L135.426 269.67L136.046 269.67L136.046 268.67ZM0.430059 4.50078C-0.397935 7.32753 1.22238 10.2903 4.04912 11.1183C6.87587 11.9463 9.83863 10.326 10.6666 7.49922C11.4946 4.67247 9.8743 1.70971 7.04756 0.881719C4.22081 0.0537254 1.25805 1.67404 0.430059 4.50078ZM136.941 268.225L6.44391 5.55507L4.65277 6.44493L135.15 269.115L136.941 268.225ZM136.046 269.67L367.5 269.67L367.5 267.67L136.046 267.67L136.046 269.67Z" fill="white"/>
<path d="M142.2 261V247H144V253.1H148.5L151.64 247H153.7L150.2 253.6L154 261H151.92L148.76 254.7H144V261H142.2ZM155.207 261V249.8H157.007V254.6H163.407V249.8H165.207V261H163.407V256.2H157.007V261H155.207ZM167.51 259.2V251.6L169.31 249.8H175.51L177.31 251.6V259.2L175.51 261H169.31L167.51 259.2ZM169.31 259.4H175.51V251.4H169.31V259.4ZM179.702 261V249.8H189.702V261H187.902V251.4H181.502V261H179.702ZM192.2 261V249.8H194V254.38H197.88L200.96 249.8H203.04L199.5 254.96L203.2 261H201.16L198.14 255.98H194V261H192.2ZM204.402 259.2V254.6L212.402 254.4V251.4H204.802V249.8H212.402L214.202 251.6V261H206.202L204.402 259.2ZM206.202 256.2V259.4H212.402V255.8L206.202 256.2ZM221.889 261V249.8H231.889V261H230.089V251.4H223.689V261H221.889ZM234.387 263.8V249.8H242.687L244.487 251.6V259.2L242.687 261H236.187V263.8H234.387ZM242.687 251.4H236.187V259.4H242.687V251.4ZM246.689 259.2V251.6L248.489 249.8H254.689L256.489 251.6V259.2L254.689 261H248.489L246.689 259.2ZM248.489 259.4H254.689V251.4H248.489V259.4ZM260.582 261L258.782 259.2V248.8L260.582 247H268.582V248.6H260.582V250.8H267.282L268.882 252.4V259.2L267.082 261H260.582ZM260.582 259.4H267.082V252.4H260.582V259.4ZM270.804 263.8V262.2H276.024L276.884 259.4H273.464L270.204 249.8H272.024L274.744 257.8H277.364L279.944 249.8H281.764L277.284 263.8H270.804ZM292.376 261H290.576V255.98H287.236L284.216 261H282.176L285.876 254.96L282.356 249.8H284.416L287.416 254.38H290.576V249.8H292.376V254.38H295.536L298.536 249.8H300.596L297.076 254.96L300.776 261H298.736L295.716 255.98H292.376V261ZM302.78 263.8V262.2H310.18V259.4H303.88L302.08 257.6V251.6L304.08 249.8H311.98V261.92L310.1 263.8H302.78ZM303.88 251.4V257.8H310.18V251.4H303.88ZM314.287 259.2V251.6L316.087 249.8H323.887V256H316.087V259.4H323.487V261H316.087L314.287 259.2ZM316.087 254.6L322.167 254.4V251.4H316.087V254.6ZM326.184 261V249.8H327.984V254.6H334.384V249.8H336.184V261H334.384V256.2H327.984V261H326.184ZM349.186 261H347.386V251.66L340.946 261H338.586V249.8H340.386V259.14L346.826 249.8H349.186V261ZM352.18 256V251.4L353.78 249.8H362.98V261H361.18V257.4H354.9L353.12 261H351.18L353.24 257.06L352.18 256ZM353.98 255.8H361.18V251.4H353.98V255.8Z" fill="white"/>
</svg>
