<svg width="477" height="106" viewBox="0 0 477 106" fill="none" xmlns="http://www.w3.org/2000/svg">
<path d="M213.5 26.306L213.774 25.3444L213.64 25.306L213.5 25.306L213.5 26.306ZM466.382 98.5009C465.554 101.328 467.174 104.29 470.001 105.118C472.827 105.946 475.79 104.326 476.618 101.499C477.446 98.6726 475.826 95.7098 472.999 94.8818C470.172 94.0538 467.21 95.6741 466.382 98.5009ZM213.225 27.2675L471.225 100.962L471.775 99.0386L213.774 25.3444L213.225 27.2675ZM213.5 25.306L-0.000331745 25.3059L-0.000332944 27.3059L213.5 27.306L213.5 25.306Z" fill="white"/>
<path d="M19.4 14.3066H17.6V2.16664L10.76 14.3066H8.2V0.30664H10V12.4466L16.84 0.30664H19.4V14.3066ZM21.7938 14.3066V3.10664H23.5938V7.90664H29.9938V3.10664H31.7938V14.3066H29.9938V9.50664H23.5938V14.3066H21.7938ZM34.7961 17.1066V15.5066H42.1961V12.7066H35.8961L34.0961 10.9066V4.90664L36.0961 3.10664H43.9961V15.2266L42.1161 17.1066H34.7961ZM35.8961 4.70664V11.1066H42.1961V4.70664H35.8961ZM57.0031 14.3066H55.2031V4.96664L48.7631 14.3066H46.4031V3.10664H48.2031V12.4466L54.6431 3.10664H57.0031V14.3066ZM59.9969 14.3066V3.10664H61.7969V7.68664H65.6769L68.7569 3.10664H70.8369L67.2969 8.26664L70.9969 14.3066H68.9569L65.9369 9.28664H61.7969V14.3066H59.9969ZM72.1992 12.5066V7.90664L80.1992 7.70664V4.70664H72.5992V3.10664H80.1992L81.9992 4.90664V14.3066H73.9992L72.1992 12.5066ZM73.9992 9.50664V12.7066H80.1992V9.10664L73.9992 9.50664ZM89.7914 14.3066H87.9914V4.70664H83.5914V3.10664H94.1914V4.70664H89.7914V14.3066ZM95.6977 12.5066V4.90664L97.4977 3.10664H103.698L105.498 4.90664V12.5066L103.698 14.3066H97.4977L95.6977 12.5066ZM97.4977 12.7066H103.698V4.70664H97.4977V12.7066ZM107.79 17.1066V3.10664H116.09L117.89 4.90664V12.5066L116.09 14.3066H109.59V17.1066H107.79ZM116.09 4.70664H109.59V12.7066H116.09V4.70664ZM125.488 14.3066V3.10664H135.487V14.3066H133.688V4.70664H127.288V14.3066H125.488ZM148.585 14.3066H146.785V4.96664L140.345 14.3066H137.985V3.10664H139.785V12.4466L146.225 3.10664H148.585V14.3066ZM156.979 14.3066H155.179V4.70664H150.779V3.10664H161.379V4.70664H156.979V14.3066ZM162.785 12.5066V7.90664L170.785 7.70664V4.70664H163.185V3.10664H170.785L172.585 4.90664V14.3066H164.585L162.785 12.5066ZM164.585 9.50664V12.7066H170.785V9.10664L164.585 9.50664ZM174.977 14.3066V3.10664H176.777V7.90664H183.177V3.10664H184.977V14.3066H183.177V9.50664H176.777V14.3066H174.977ZM197.98 14.3066H196.18V4.96664L189.74 14.3066H187.38V3.10664H189.18V12.4466L195.62 3.10664H197.98V14.3066ZM200.973 9.30664V4.70664L202.573 3.10664H211.773V14.3066H209.973V10.7066H203.693L201.913 14.3066H199.973L202.033 10.3666L200.973 9.30664ZM202.773 9.10664H209.973V4.70664H202.773V9.10664Z" fill="white"/>
</svg>
