<svg width="770" height="69" viewBox="0 0 770 69" fill="none" xmlns="http://www.w3.org/2000/svg">
<path d="M447.499 67.8669L447.36 68.8572L447.429 68.8669L447.499 68.8669L447.499 67.8669ZM0.881583 4.36748C0.0535868 7.19424 1.6739 10.157 4.50065 10.985C7.3274 11.813 10.2901 10.1927 11.1181 7.36591C11.9461 4.53916 10.3258 1.57642 7.49908 0.748423C4.67233 -0.079571 1.70958 1.54073 0.881583 4.36748ZM447.638 66.8766L6.13893 4.87642L5.8608 6.85698L447.36 68.8572L447.638 66.8766ZM447.499 68.8669L769.499 68.8669L769.499 66.8669L447.499 66.8669L447.499 68.8669Z" fill="white"/>
<path d="M442.2 59.8672V45.8672H444.48L448.8 53.4272L453.12 45.8672H455.4V59.8672H453.64V48.0672L449.4 55.4672H448.2L443.96 48.0672V59.8672H442.2ZM468.405 59.8672H466.605V50.5272L460.165 59.8672H457.805V48.6672H459.605V58.0072L466.045 48.6672H468.405V59.8672ZM471.399 59.8672V48.6672H473.199V53.2472H477.079L480.159 48.6672H482.239L478.699 53.8272L482.399 59.8672H480.359L477.339 54.8472H473.199V59.8672H471.399ZM483.801 62.6672V48.6672H492.101L493.901 50.4672V58.0672L492.101 59.8672H485.601V62.6672H483.801ZM492.101 50.2672H485.601V58.2672H492.101V50.2672ZM496.103 58.0672V50.4672L497.903 48.6672H504.103L505.903 50.4672V58.0672L504.103 59.8672H497.903L496.103 58.0672ZM497.903 58.2672H504.103V50.2672H497.903V58.2672ZM508.196 59.8672V48.6672H509.996V53.2472H513.876L516.956 48.6672H519.036L515.496 53.8272L519.196 59.8672H517.156L514.136 54.8472H509.996V59.8672H508.196ZM520.498 58.0672V50.4672L522.298 48.6672H528.498L530.298 50.4672V58.0672L528.498 59.8672H522.298L520.498 58.0672ZM522.298 58.2672H528.498V50.2672H522.298V58.2672ZM532.59 59.8672V48.6672H534.39V53.4672H540.79V48.6672H542.59V59.8672H540.79V55.0672H534.39V59.8672H532.59ZM550.392 59.8672H548.592V50.2672H544.192V48.6672H554.792V50.2672H550.392V59.8672ZM556.399 62.6672V48.6672H564.699L566.499 50.4672V58.0672L564.699 59.8672H558.199V62.6672H556.399ZM564.699 50.2672H558.199V58.2672H564.699V50.2672ZM568.701 58.0672V50.4672L570.501 48.6672H576.701L578.501 50.4672V58.0672L576.701 59.8672H570.501L568.701 58.0672ZM570.501 58.2672H576.701V50.2672H570.501V58.2672ZM590.793 48.6672V59.8672H588.993V50.2272H584.333L583.473 59.8672H579.893V58.2272H581.933L582.633 50.2272H580.893V48.6672H590.793ZM603.196 48.6672V59.8672H601.396V50.2272H596.736L595.876 59.8672H592.296V58.2272H594.336L595.036 50.2272H593.296V48.6672H603.196ZM605.498 58.0672V50.4672L607.298 48.6672H615.098V54.8672H607.298V58.2672H614.698V59.8672H607.298L605.498 58.0672ZM607.298 53.4672L613.378 53.2672V50.2672H607.298V53.4672ZM617.395 62.6672V48.6672H625.695L627.495 50.4672V58.0672L625.695 59.8672H619.195V62.6672H617.395ZM625.695 50.2672H619.195V58.2672H625.695V50.2672ZM634.992 59.8672V45.8672H636.792V51.9672H641.292L644.432 45.8672H646.492L642.992 52.4672L646.792 59.8672H644.712L641.552 53.5672H636.792V59.8672H634.992ZM647.7 59.9472V58.3472L650.4 58.2472V47.9872L647.9 48.1672V46.6672L652.2 45.8672V58.2472L654.5 58.3472V59.9472L651.1 59.7872L647.7 59.9472ZM665.594 45.8672L667.194 47.4672V58.2672L665.594 59.8672H657.394V58.2672H665.394V54.6672H657.994L656.594 53.2672V47.4672L658.194 45.8672H665.594ZM665.394 47.4672H658.394V53.0672H665.394V47.4672ZM671.002 59.8672L669.402 58.2672V53.7472L670.942 52.5472L669.802 51.6872V47.4672L671.402 45.8672H678.802L680.402 47.4672V51.6872L679.262 52.5472L680.802 53.7472V58.2672L679.202 59.8672H671.002ZM671.602 51.7672H678.602V47.4672H671.602V51.7672ZM671.202 58.2672H679.002V53.3672H671.202V58.2672ZM684.6 59.8672L683 58.2672V47.4672L684.6 45.8672H692.8V47.4672H684.8V51.0672H692.2L693.6 52.4672V58.2672L692 59.8672H684.6ZM684.8 58.2672H691.8V52.6672H684.8V58.2672ZM706.408 47.4672V51.4872L705.468 52.3472L706.808 53.5472V58.2672L705.208 59.8672H696.008V45.8672H704.808L706.408 47.4672ZM697.808 51.7672H704.608V47.4672H697.808V51.7672ZM697.808 58.2672H705.008V53.3672H697.808V58.2672ZM708.801 59.8672V45.8672H718.401V47.4672H710.601V51.8672H717.401V53.4672H710.601V58.2672H718.601V59.8672H708.801ZM729.403 45.8672L731.003 47.4672V58.2672L729.403 59.8672H721.203V58.2672H729.203V54.6672H721.803L720.403 53.2672V47.4672L722.003 45.8672H729.403ZM729.203 47.4672H722.203V53.0672H729.203V47.4672ZM744.21 58.2672V59.8672H733.41V52.8272L742.41 51.8272V47.4672H733.61V45.8672H742.61L744.21 47.4672V53.1672L735.21 54.1672V58.2672H744.21ZM746.614 58.2672V47.4672L748.214 45.8672H756.214L757.814 47.4672V58.6672L756.494 59.6872L758.614 60.0472V61.6672L748.214 59.8672L746.614 58.2672ZM748.414 58.2872L756.014 59.6072V47.4672H748.414V58.2872ZM759.907 59.9472V58.3472L762.407 58.2472V47.4872L759.907 47.3872V45.7872L763.307 45.9472L766.707 45.7872V47.3872L764.207 47.4872V58.2472L766.707 58.3472V59.9472L763.307 59.7872L759.907 59.9472Z" fill="white"/>
</svg>
