<svg width="506" height="208" viewBox="0 0 506 208" fill="none" xmlns="http://www.w3.org/2000/svg">
<path d="M244.855 26.386L245.421 25.562L245.165 25.386L244.855 25.386L244.855 26.386ZM496.061 199.138C494.392 201.565 495.007 204.885 497.434 206.554C499.861 208.223 503.181 207.609 504.85 205.182C506.519 202.755 505.905 199.434 503.478 197.765C501.051 196.096 497.73 196.711 496.061 199.138ZM244.288 27.21L499.889 202.984L501.022 201.336L245.421 25.562L244.288 27.21ZM244.855 25.386L2.00019 25.3864L2.00019 27.3864L244.855 27.386L244.855 25.386Z" fill="white"/>
<path d="M10.6 1.81582V9.61582L9 11.2158H2V14.2158H0.2V0.215819H9L10.6 1.81582ZM2 9.61582H8.8V1.81582H2V9.61582ZM12.4023 12.4158V7.81582L20.4023 7.61582V4.61582H12.8023V3.01582H20.4023L22.2023 4.81582V14.2158H14.2023L12.4023 12.4158ZM14.2023 9.41582V12.6158H20.4023V9.01582L14.2023 9.41582ZM34.0945 12.6158L32.4945 14.2158H24.0945V12.6158H32.2945V9.29582H25.0945V7.69582H31.8945V4.61582H24.2945V3.01582H32.0945L33.6945 4.61582V7.51582L32.5545 8.37582L34.0945 9.57582V12.6158ZM37.9914 14.2158V5.21582L38.5914 4.61582H35.3914V3.01582H39.7914V5.81582H46.2914L48.0914 7.61582V12.4158L46.2914 14.2158H37.9914ZM39.7914 12.6158H46.2914V7.41582H39.7914V12.6158ZM50.2953 12.4158V4.81582L52.0953 3.01582H59.8953V9.21582H52.0953V12.6158H59.4953V14.2158H52.0953L50.2953 12.4158ZM52.0953 7.81582L58.1753 7.61582V4.61582H52.0953V7.81582ZM62.1922 14.2158V3.01582H64.4722L68.1922 8.73582L71.9122 3.01582H74.1922V14.2158H72.4322V5.01582L68.7922 10.6158H67.5922L63.9522 5.01582V14.2158H62.1922ZM82.382 17.0158V15.4158H89.782V12.6158H83.482L81.682 10.8158V4.81582L83.682 3.01582H91.582V15.1358L89.702 17.0158H82.382ZM83.482 4.61582V11.0158H89.782V4.61582H83.482ZM103.989 3.01582V14.2158H102.189V4.57582H97.5291L96.6691 14.2158H93.0891V12.5758H95.1291L95.8291 4.57582H94.0891V3.01582H103.989ZM106.391 9.21582V4.61582L107.991 3.01582H117.191V14.2158H115.391V10.6158H109.111L107.331 14.2158H105.391L107.451 10.2758L106.391 9.21582ZM108.191 9.01582H115.391V4.61582H108.191V9.01582ZM128.29 14.2158V1.81582H123.99V0.215819H134.39V1.81582H130.09V14.2158H128.29ZM135.981 14.2158V0.215819H145.581V1.81582H137.781V7.41582H145.181V9.01582H137.781V14.2158H135.981ZM150.888 14.2158V1.81582H146.588V0.215819H156.988V1.81582H152.688V14.2158H150.888ZM163.774 14.2158V3.01582H166.054L169.774 8.73582L173.494 3.01582H175.774V14.2158H174.014V5.01582L170.374 10.6158H169.174L165.534 5.01582V14.2158H163.774ZM178.069 12.4158V4.81582L179.869 3.01582H186.069L187.869 4.81582V12.4158L186.069 14.2158H179.869L178.069 12.4158ZM179.869 12.6158H186.069V4.61582H179.869V12.6158ZM190.761 17.0158V15.4158H198.161V12.6158H191.861L190.061 10.8158V4.81582L192.061 3.01582H199.961V15.1358L198.081 17.0158H190.761ZM191.861 4.61582V11.0158H198.161V4.61582H191.861ZM201.988 17.0158V15.4158H207.208L208.068 12.6158H204.648L201.388 3.01582H203.208L205.928 11.0158H208.548L211.128 3.01582H212.948L208.468 17.0158H201.988ZM224.36 3.01582V14.2158H222.56V4.57582H217.9L217.04 14.2158H213.46V12.5758H215.5L216.2 4.57582H214.46V3.01582H224.36ZM226.763 9.21582V4.61582L228.363 3.01582H237.563V14.2158H235.763V10.6158H229.483L227.703 14.2158H225.763L227.823 10.2758L226.763 9.21582ZM228.563 9.01582H235.763V4.61582H228.563V9.01582Z" fill="white"/>
</svg>
