<svg width="268" height="130" viewBox="0 0 268 130" fill="none" xmlns="http://www.w3.org/2000/svg">
<path d="M157.142 71.2314L157.066 72.2285L157.108 72.2317L157.151 72.2313L157.142 71.2314ZM0.396979 58.1778C-0.404851 61.0121 1.24278 63.9598 4.07706 64.7616C6.91134 65.5634 9.85899 63.9158 10.6608 61.0815C11.4626 58.2472 9.81502 55.2996 6.98074 54.4977C4.14646 53.6959 1.19881 55.3435 0.396979 58.1778ZM157.218 70.2343L5.6052 58.6326L5.4526 60.6268L157.066 72.2285L157.218 70.2343ZM157.151 72.2313L262.147 71.2615L262.129 69.2616L157.133 70.2314L157.151 72.2313Z" fill="white"/>
<path d="M196.762 62.4888L196.662 51.6893L198.248 50.0746L206.647 49.9969L206.662 51.5969L198.462 51.6727L198.562 62.4722L205.642 62.4067L205.596 57.467L201.316 57.5065L201.302 55.9466L207.302 55.8911L207.377 63.9908L198.377 64.074L196.762 62.4888ZM220.069 51.4729L220.141 59.2726L218.556 60.8873L211.556 60.952L211.584 63.9519L209.784 63.9685L209.655 49.9691L218.455 49.8878L220.069 51.4729ZM211.542 59.3521L218.341 59.2892L218.269 51.4896L211.47 51.5524L211.542 59.3521ZM221.887 63.9367L221.872 62.3367L224.371 62.2136L224.272 51.4541L221.771 51.3772L221.756 49.7773L225.157 49.9058L228.556 49.7144L228.57 51.3143L226.071 51.4374L226.171 62.197L228.672 62.2739L228.687 63.8738L225.285 63.7452L221.887 63.9367ZM230.765 62.1745L230.665 51.375L232.25 49.7603L240.25 49.6863L241.864 51.2715L241.964 62.071L240.379 63.6857L232.379 63.7597L230.765 62.1745ZM232.465 51.3583L232.565 62.1579L240.164 62.0876L240.064 51.2881L232.465 51.3583ZM243.922 58.1527L243.905 56.3528L249.105 56.3047L249.122 58.1047L243.922 58.1527ZM261.954 61.8862L261.969 63.4862L251.169 63.586L251.104 56.5463L260.095 55.4631L260.054 51.1033L251.255 51.1847L251.24 49.5847L260.239 49.5015L261.854 51.0867L261.907 56.7864L252.916 57.8696L252.954 61.9694L261.954 61.8862Z" fill="white"/>
</svg>
