<svg width="907" height="114" viewBox="0 0 907 114" fill="none" xmlns="http://www.w3.org/2000/svg">
<path d="M564.5 22.5409L564.5 21.5409L564.457 21.5409L564.414 21.5447L564.5 22.5409ZM0.881337 106.501C0.0533415 109.328 1.67365 112.29 4.5004 113.118C7.32715 113.946 10.2899 112.326 11.1179 109.499C11.9459 106.673 10.3256 103.71 7.49884 102.882C4.67209 102.054 1.70933 103.674 0.881337 106.501ZM93.8818 61.3953C93.0538 64.2221 94.6741 67.1848 97.5009 68.0128C100.328 68.8408 103.29 67.2205 104.118 64.3938C104.946 61.567 103.326 58.6042 100.499 57.7763C97.6725 56.9483 94.7098 58.5686 93.8818 61.3953ZM564.349 21.5524L5.84837 107.012L6.15087 108.989L564.651 23.5294L564.349 21.5524ZM564.5 23.5409L907.001 23.5402L907 21.5402L564.5 21.5409L564.5 23.5409ZM564.414 21.5447L98.9137 61.8983L99.0864 63.8908L564.586 23.5372L564.414 21.5447Z" fill="white"/>
<path d="M565.7 14.3945V0.39453H567.98L572.3 7.95453L576.62 0.39453H578.9V14.3945H577.14V2.59453L572.9 9.99453H571.7L567.46 2.59453V14.3945H565.7ZM581.205 12.5945V4.99453L583.005 3.19453H589.205L591.005 4.99453V12.5945L589.205 14.3945H583.005L581.205 12.5945ZM583.005 12.7945H589.205V4.79453H583.005V12.7945ZM593.898 17.1945V15.5945H601.298V12.7945H594.998L593.198 10.9945V4.99453L595.198 3.19453H603.098V15.3145L601.218 17.1945H593.898ZM594.998 4.79453V11.1945H601.298V4.79453H594.998ZM605.125 17.1945V15.5945H610.345L611.205 12.7945H607.785L604.525 3.19453H606.345L609.065 11.1945H611.685L614.265 3.19453H616.085L611.605 17.1945H605.125ZM627.497 3.19453V14.3945H625.697V4.75453H621.037L620.177 14.3945H616.597V12.7545H618.637L619.337 4.75453H617.597V3.19453H627.497ZM629.899 14.3945V3.19453H631.699V5.99453H638.199L639.999 7.79453V12.5945L638.199 14.3945H629.899ZM631.699 12.7945H638.199V7.59453H631.699V12.7945ZM647.497 17.1945V3.19453H655.797L657.597 4.99453V12.5945L655.797 14.3945H649.297V17.1945H647.497ZM655.797 4.79453H649.297V12.7945H655.797V4.79453ZM659.699 12.5945V7.99453L667.699 7.79453V4.79453H660.099V3.19453H667.699L669.499 4.99453V14.3945H661.499L659.699 12.5945ZM661.499 9.59453V12.7945H667.699V9.19453L661.499 9.59453ZM671.791 12.5945V4.99453L673.591 3.19453H680.991V4.79453H673.591V12.7945H680.991V14.3945H673.591L671.791 12.5945ZM691.39 3.19453V12.7945H696.39V3.19453H698.19V14.3945H682.79V3.19453H684.59V12.7945H689.59V3.19453H691.39ZM711.183 14.3945H709.383V5.05453L702.943 14.3945H700.583V3.19453H702.383V12.5345L708.823 3.19453H711.183V14.3945ZM714.177 17.1945V3.19453H722.477L724.277 4.99453V12.5945L722.477 14.3945H715.977V17.1945H714.177ZM722.477 4.79453H715.977V12.7945H722.477V4.79453ZM726.479 12.5945V4.99453L728.279 3.19453H736.079V9.39453H728.279V12.7945H735.679V14.3945H728.279L726.479 12.5945ZM728.279 7.99453L734.359 7.79453V4.79453H728.279V7.99453ZM738.376 14.3945V3.19453H740.176V7.99453H746.576V3.19453H748.376V14.3945H746.576V9.59453H740.176V14.3945H738.376ZM761.378 14.3945H759.578V5.05453L753.138 14.3945H750.778V3.19453H752.578V12.5345L759.018 3.19453H761.378V14.3945ZM764.372 9.39453V4.79453L765.972 3.19453H775.172V14.3945H773.372V10.7945H767.092L765.312 14.3945H763.372L765.432 10.4545L764.372 9.39453ZM766.172 9.19453H773.372V4.79453H766.172V9.19453ZM782.77 12.7945V1.99453L784.37 0.39453H791.77V2.03453H784.57V12.7545H791.97V14.3945H784.37L782.77 12.7945ZM792.966 14.3945L796.606 0.39453H801.526L805.166 14.3945H803.326L802.406 10.7945H795.726L794.806 14.3945H792.966ZM796.126 9.23453H802.006L800.146 1.95453H797.986L796.126 9.23453ZM806.774 14.3945V0.39453H809.334L816.174 12.2945V0.39453H817.974V14.3945H815.414L808.574 2.49453V14.3945H806.774ZM819.368 14.3945L825.908 0.39453H827.768L821.228 14.3945H819.368ZM829.177 12.7945V0.39453H830.977V12.7945H837.977V0.39453H839.777V12.7945L838.177 14.3945H830.777L829.177 12.7945ZM841.384 14.3945L845.024 0.39453H849.944L853.584 14.3945H851.744L850.824 10.7945H844.144L843.224 14.3945H841.384ZM844.544 9.23453H850.424L848.564 1.95453H846.404L844.544 9.23453ZM865.992 1.99453V8.19453L864.872 9.31453L866.992 14.3945H865.052L863.072 9.59453H856.992V14.3945H855.192V0.39453H864.392L865.992 1.99453ZM856.992 7.99453H864.192V1.99453H856.992V7.99453ZM871.895 14.3945V1.99453H867.595V0.39453H877.995V1.99453H873.695V14.3945H871.895Z" fill="white"/>
</svg>
