<svg width="618" height="69" viewBox="0 0 618 69" fill="none" xmlns="http://www.w3.org/2000/svg">
<path d="M302 67.8635L301.795 68.8423L301.896 68.8635L302 68.8635L302 67.8635ZM0.881723 4.36349C0.0537294 7.19023 1.67404 10.153 4.50079 10.981C7.32754 11.809 10.2903 10.1887 11.1183 7.36192C11.9463 4.53517 10.326 1.57241 7.49922 0.744418C4.67247 -0.0835758 1.70972 1.53674 0.881723 4.36349ZM302.205 66.8847L6.20502 4.88394L5.79499 6.84146L301.795 68.8423L302.205 66.8847ZM302 68.8635L617.5 68.8625L617.5 66.8625L302 66.8635L302 68.8635Z" fill="white"/>
<path d="M305.2 60V46H307.48L311.8 53.56L316.12 46H318.4V60H316.64V48.2L312.4 55.6H311.2L306.96 48.2V60H305.2ZM320.705 58.2V50.6L322.505 48.8H328.705L330.505 50.6V58.2L328.705 60H322.505L320.705 58.2ZM322.505 58.4H328.705V50.4H322.505V58.4ZM333.398 62.8V61.2H340.798V58.4H334.498L332.698 56.6V50.6L334.698 48.8H342.598V60.92L340.718 62.8H333.398ZM334.498 50.4V56.8H340.798V50.4H334.498ZM344.625 62.8V61.2H349.845L350.705 58.4H347.285L344.025 48.8H345.845L348.565 56.8H351.185L353.765 48.8H355.585L351.105 62.8H344.625ZM366.997 48.8V60H365.197V50.36H360.537L359.677 60H356.097V58.36H358.137L358.837 50.36H357.097V48.8H366.997ZM369.399 60V48.8H371.199V51.6H377.699L379.499 53.4V58.2L377.699 60H369.399ZM371.199 58.4H377.699V53.2H371.199V58.4ZM386.997 62.8V48.8H395.297L397.097 50.6V58.2L395.297 60H388.797V62.8H386.997ZM395.297 50.4H388.797V58.4H395.297V50.4ZM399.199 58.2V53.6L407.199 53.4V50.4H399.599V48.8H407.199L408.999 50.6V60H400.999L399.199 58.2ZM400.999 55.2V58.4H407.199V54.8L400.999 55.2ZM411.291 58.2V50.6L413.091 48.8H420.491V50.4H413.091V58.4H420.491V60H413.091L411.291 58.2ZM430.89 48.8V58.4H435.89V48.8H437.69V60H422.29V48.8H424.09V58.4H429.09V48.8H430.89ZM450.683 60H448.883V50.66L442.443 60H440.083V48.8H441.883V58.14L448.323 48.8H450.683V60ZM453.677 62.8V48.8H461.977L463.777 50.6V58.2L461.977 60H455.477V62.8H453.677ZM461.977 50.4H455.477V58.4H461.977V50.4ZM465.979 58.2V50.6L467.779 48.8H475.579V55H467.779V58.4H475.179V60H467.779L465.979 58.2ZM467.779 53.6L473.859 53.4V50.4H467.779V53.6ZM477.876 60V48.8H479.676V53.6H486.076V48.8H487.876V60H486.076V55.2H479.676V60H477.876ZM500.878 60H499.078V50.66L492.638 60H490.278V48.8H492.078V58.14L498.518 48.8H500.878V60ZM503.872 55V50.4L505.472 48.8H514.672V60H512.872V56.4H506.592L504.812 60H502.872L504.932 56.06L503.872 55ZM505.672 54.8H512.872V50.4H505.672V54.8ZM522.27 58.4V47.6L523.87 46H531.27V47.64H524.07V58.36H531.47V60H523.87L522.27 58.4ZM532.466 60L536.106 46H541.026L544.666 60H542.826L541.906 56.4H535.226L534.306 60H532.466ZM535.626 54.84H541.506L539.646 47.56H537.486L535.626 54.84ZM546.274 60V46H548.834L555.674 57.9V46H557.474V60H554.914L548.074 48.1V60H546.274ZM558.868 60L565.408 46H567.268L560.728 60H558.868ZM568.677 58.4V46H570.477V58.4H577.477V46H579.277V58.4L577.677 60H570.277L568.677 58.4ZM580.884 60L584.524 46H589.444L593.084 60H591.244L590.324 56.4H583.644L582.724 60H580.884ZM584.044 54.84H589.924L588.064 47.56H585.904L584.044 54.84ZM605.492 47.6V53.8L604.372 54.92L606.492 60H604.552L602.572 55.2H596.492V60H594.692V46H603.892L605.492 47.6ZM596.492 53.6H603.692V47.6H596.492V53.6ZM611.395 60V47.6H607.095V46H617.495V47.6H613.195V60H611.395Z" fill="white"/>
</svg>
