<svg width="201.594604" height="206.449997" viewBox="0 0 201.595 206.45" fill="none" xmlns="http://www.w3.org/2000/svg" xmlns:xlink="http://www.w3.org/1999/xlink">
	<desc>
			Created with Pixso.
	</desc>
	<defs/>
	<rect id="фрейм 4" width="201.594574" height="206.000000" fill="#FFFFFF" fill-opacity="0"/>
	<circle id="Эллипс 2" cx="7.500000" cy="6.500000" r="5.500000" fill="#FFFFFF" fill-opacity="1.000000"/>
	<line id="Линия 2" x1="7.000000" y1="7.000000" x2="105.000000" y2="206.000000" stroke="#FFFFFF" stroke-opacity="1.000000" stroke-width="2.000000"/>
	<path id="Линия 2" d="M104.1 205.45L201.1 205.45" stroke="#FFFFFF" stroke-opacity="1.000000" stroke-width="2.000000"/>
	<path id="path" d="M136 196.48L136 185.68L137.6 184.08L146 184.08L146 185.68L137.8 185.68L137.8 196.48L144.88 196.48L144.88 191.54L140.6 191.54L140.6 189.98L146.6 189.98L146.6 198.08L137.6 198.08L136 196.48ZM159.408 185.68L159.408 193.48L157.808 195.08L150.808 195.08L150.808 198.08L149.008 198.08L149.008 184.08L157.808 184.08L159.408 185.68ZM150.808 193.48L157.608 193.48L157.608 185.68L150.808 185.68L150.808 193.48ZM161.11 198.16L161.11 196.56L163.61 196.46L163.61 185.7L161.11 185.6L161.11 184L164.51 184.16L167.91 184L167.91 185.6L165.41 185.7L165.41 196.46L167.91 196.56L167.91 198.16L164.51 198L161.11 198.16ZM170.004 196.48L170.004 185.68L171.604 184.08L179.604 184.08L181.204 185.68L181.204 196.48L179.604 198.08L171.604 198.08L170.004 196.48ZM171.804 185.68L171.804 196.48L179.404 196.48L179.404 185.68L171.804 185.68ZM183.198 192.58L183.198 190.78L188.398 190.78L188.398 192.58L183.198 192.58ZM198.995 198.08L189.795 198.08L189.795 196.48L198.795 196.48L198.795 191.68L190.995 191.68L190.995 190.08L198.395 190.08L198.395 185.68L189.995 185.68L189.995 184.08L198.595 184.08L200.195 185.68L200.195 189.9L199.055 190.76L200.595 191.96L200.595 196.48L198.995 198.08Z" fill="#FFFFFF" fill-opacity="1.000000" fill-rule="nonzero"/>
</svg>
