<svg width="659" height="199" viewBox="0 0 659 199" fill="none" xmlns="http://www.w3.org/2000/svg">
<path d="M322.499 197.525L322.499 198.525L322.768 198.525L323 198.39L322.499 197.525ZM647.882 4.52747C647.054 7.35422 648.675 10.317 651.501 11.145C654.328 11.9729 657.291 10.3526 658.119 7.52589C658.947 4.69914 657.326 1.73639 654.5 0.908401C651.673 0.0804135 648.71 1.70072 647.882 4.52747ZM323 198.39L653.502 6.89194L652.499 5.16143L321.998 196.66L323 198.39ZM322.499 196.525L0.000412835 196.525L0.000405688 198.525L322.499 198.525L322.499 196.525Z" fill="white"/>
<path d="M1.2 189.66V175.66H11.8V189.66H10V177.26H3V189.66H1.2ZM14.2078 192.46V178.46H22.5078L24.3078 180.26V187.86L22.5078 189.66H16.0078V192.46H14.2078ZM22.5078 180.06H16.0078V188.06H22.5078V180.06ZM26.5102 187.86V180.26L28.3102 178.46H34.5102L36.3102 180.26V187.86L34.5102 189.66H28.3102L26.5102 187.86ZM28.3102 188.06H34.5102V180.06H28.3102V188.06ZM38.6023 189.66V178.46H46.4023V180.06H40.4023V189.66H38.6023ZM47.9969 192.46V178.46H56.2969L58.0969 180.26V187.86L56.2969 189.66H49.7969V192.46H47.9969ZM56.2969 180.06H49.7969V188.06H56.2969V180.06ZM60.1992 187.86V183.26L68.1992 183.06V180.06H60.5992V178.46H68.1992L69.9992 180.26V189.66H61.9992L60.1992 187.86ZM61.9992 184.86V188.06H68.1992V184.46L61.9992 184.86ZM72.3914 189.66V178.46H74.6714L78.3914 184.18L82.1114 178.46H84.3914V189.66H82.6314V180.46L78.9914 186.06H77.7914L74.1514 180.46V189.66H72.3914ZM86.7859 189.66V178.46H89.0659L92.7859 184.18L96.5059 178.46H98.7859V189.66H97.0259V180.46L93.3859 186.06H92.1859L88.5459 180.46V189.66H86.7859ZM111.78 189.66H109.98V180.32L103.54 189.66H101.18V178.46H102.98V187.8L109.42 178.46H111.78V189.66ZM114.774 192.46V178.46H123.074L124.874 180.26V187.86L123.074 189.66H116.574V192.46H114.774ZM123.074 180.06H116.574V188.06H123.074V180.06ZM127.077 187.86V180.26L128.877 178.46H135.077L136.877 180.26V187.86L135.077 189.66H128.877L127.077 187.86ZM128.877 188.06H135.077V180.06H128.877V188.06ZM139.169 178.46H147.169L148.769 180.06V182.96L147.629 183.82L149.169 185.02V188.06L147.569 189.66H139.169V178.46ZM140.969 183.14H146.969V180.06H140.969V183.14ZM140.969 188.06H147.369V184.74H140.969V188.06ZM151.176 187.86V183.26L159.176 183.06V180.06H151.576V178.46H159.176L160.976 180.26V189.66H152.976L151.176 187.86ZM152.976 184.86V188.06H159.176V184.46L152.976 184.86ZM163.368 189.66V178.46H165.168V183.26H171.568V178.46H173.368V189.66H171.568V184.86H165.168V189.66H163.368ZM186.37 189.66H184.57V180.32L178.13 189.66H175.77V178.46H177.57V187.8L184.01 178.46H186.37V189.66ZM189.264 187.86V180.26L191.064 178.46H198.864V184.66H191.064V188.06H198.464V189.66H191.064L189.264 187.86ZM191.064 183.26L197.144 183.06V180.06H191.064V183.26ZM206.456 189.66V178.46H216.456V189.66H214.656V180.06H208.256V189.66H206.456ZM218.854 187.86V180.26L220.654 178.46H226.854L228.654 180.26V187.86L226.854 189.66H220.654L218.854 187.86ZM220.654 188.06H226.854V180.06H220.654V188.06ZM236.141 188.06V175.66H237.941V188.06H244.941V175.66H246.741V188.06L245.141 189.66H237.741L236.141 188.06ZM249.349 189.66V188.06H257.749V183.6L249.149 182.94V177.26L250.749 175.66H259.349V177.26H250.949V181.52L259.549 182.18V188.06L257.949 189.66H249.349ZM272.342 177.26V181.28L271.402 182.14L272.742 183.34V188.06L271.142 189.66H261.942V175.66H270.742L272.342 177.26ZM263.742 181.56H270.542V177.26H263.742V181.56ZM263.742 188.06H270.942V183.16H263.742V188.06Z" fill="white"/>
</svg>
