<svg width="645" height="137" viewBox="0 0 645 137" fill="none" xmlns="http://www.w3.org/2000/svg">
<path d="M302 135.147L301.795 136.126L301.897 136.147L302 136.147L302 135.147ZM0.881829 71.647C0.0538354 74.4737 1.67415 77.4365 4.50089 78.2645C7.32764 79.0925 10.2904 77.4722 11.1184 74.6454C11.9464 71.8187 10.3261 68.8559 7.49933 68.0279C4.67258 67.1999 1.70982 68.8202 0.881829 71.647ZM112.383 4.28429C111.555 7.11103 113.175 10.0738 116.002 10.9018C118.828 11.7298 121.791 10.1095 122.619 7.28272C123.447 4.45597 121.827 1.49321 119 0.665221C116.173 -0.162773 113.211 1.45754 112.383 4.28429ZM302.205 134.168L6.20512 72.1674L5.7951 74.125L301.795 136.126L302.205 134.168ZM302 136.147L644.501 136.146L644.501 134.146L302 134.147L302 136.147ZM302.574 134.328L118.075 4.96472L116.927 6.60229L301.426 135.966L302.574 134.328Z" fill="white"/>
<path d="M315.4 128.282H313.6V116.142L306.76 128.282H304.2V114.282H306V126.422L312.84 114.282H315.4V128.282ZM317.793 128.282V117.082H319.593V121.882H325.993V117.082H327.793V128.282H325.993V123.482H319.593V128.282H317.793ZM335.596 128.282H333.796V118.682H329.396V117.082H339.996V118.682H335.596V128.282ZM341.502 126.482V118.882L343.302 117.082H351.102V123.282H343.302V126.682H350.702V128.282H343.302L341.502 126.482ZM343.302 121.882L349.382 121.682V118.682H343.302V121.882ZM353.399 131.082V117.082H361.699L363.499 118.882V126.482L361.699 128.282H355.199V131.082H353.399ZM361.699 118.682H355.199V126.682H361.699V118.682ZM365.801 126.682V118.682L367.401 117.082H371.701V114.282H373.501V117.082H377.801L379.401 118.682V126.682L377.801 128.282H373.501V131.082H371.701V128.282H367.401L365.801 126.682ZM367.601 118.602V126.762H371.701V118.602H367.601ZM377.601 118.602H373.501V126.762H377.601V118.602ZM381.697 126.482V118.882L383.497 117.082H391.297V123.282H383.497V126.682H390.897V128.282H383.497L381.697 126.482ZM383.497 121.882L389.577 121.682V118.682H383.497V121.882ZM404.194 128.282H402.394V118.942L395.954 128.282H393.594V117.082H395.394V126.422L401.834 117.082H404.194V128.282ZM401.354 113.282H403.194L401.794 115.682H396.594L395.194 113.282H397.034L397.694 114.382H400.694L401.354 113.282ZM407.088 126.482V118.882L408.888 117.082H416.288V118.682H408.888V126.682H416.288V128.282H408.888L407.088 126.482ZM422.882 126.482V122.282H424.682V126.682H431.082V115.882H423.282V114.282H432.882V126.482L431.082 128.282H424.682L422.882 126.482ZM434.874 122.782V120.982H440.074V122.782H434.874ZM442.071 128.282V114.282H443.871V126.682H450.551V122.682H452.271V128.282H442.071ZM454.063 115.682V114.082H455.863V115.682H454.063ZM454.063 128.282V117.082H455.863V128.282H454.063ZM458.262 128.282V117.082H466.462L468.262 118.882V128.282H466.462V118.682H460.062V128.282H458.262ZM470.664 128.282V114.282H472.464V121.662H476.024L479.024 117.082H481.084L477.564 122.242L481.264 128.282H479.224L476.204 123.262H472.464V128.282H470.664ZM487.952 128.282V117.082H497.952V128.282H496.152V118.682H489.752V128.282H487.952ZM500.45 131.082V117.082H508.75L510.55 118.882V126.482L508.75 128.282H502.25V131.082H500.45ZM508.75 118.682H502.25V126.682H508.75V118.682ZM512.752 126.482V118.882L514.552 117.082H520.752L522.552 118.882V126.482L520.752 128.282H514.552L512.752 126.482ZM514.552 126.682H520.752V118.682H514.552V126.682ZM524.844 128.282V117.082H532.644V118.682H526.644V128.282H524.844ZM534.239 131.082V117.082H542.539L544.339 118.882V126.482L542.539 128.282H536.039V131.082H534.239ZM542.539 118.682H536.039V126.682H542.539V118.682ZM546.441 126.482V121.882L554.441 121.682V118.682H546.841V117.082H554.441L556.241 118.882V128.282H548.241L546.441 126.482ZM548.241 123.482V126.682H554.441V123.082L548.241 123.482ZM558.633 128.282V117.082H560.913L564.633 122.802L568.353 117.082H570.633V128.282H568.873V119.082L565.233 124.682H564.033L560.393 119.082V128.282H558.633ZM573.028 128.282V117.082H575.308L579.028 122.802L582.748 117.082H585.028V128.282H583.268V119.082L579.628 124.682H578.428L574.788 119.082V128.282H573.028ZM587.222 126.482V121.882L595.222 121.682V118.682H587.622V117.082H595.222L597.022 118.882V128.282H589.022L587.222 126.482ZM589.022 123.482V126.682H595.222V123.082L589.022 123.482ZM604.814 128.282H603.014V118.682H598.614V117.082H609.214V118.682H604.814V128.282ZM610.721 126.482V118.882L612.521 117.082H618.721L620.521 118.882V126.482L618.721 128.282H612.521L610.721 126.482ZM612.521 126.682H618.721V118.682H612.521V126.682ZM622.813 131.082V117.082H631.113L632.913 118.882V126.482L631.113 128.282H624.613V131.082H622.813ZM631.113 118.682H624.613V126.682H631.113V118.682ZM635.015 126.482V121.882L643.015 121.682V118.682H635.415V117.082H643.015L644.815 118.882V128.282H636.815L635.015 126.482ZM636.815 123.482V126.682H643.015V123.082L636.815 123.482Z" fill="white"/>
</svg>
