<svg width="521" height="92" viewBox="0 0 521 92" fill="none" xmlns="http://www.w3.org/2000/svg">
<path d="M269 25.6126L269.24 24.6418L269.122 24.6126L269 24.6126L269 25.6126ZM510.381 85.0008C509.553 87.8276 511.174 90.7903 514 91.6183C516.827 92.4463 519.79 90.826 520.618 87.9993C521.446 85.1725 519.826 82.2098 516.999 81.3818C514.172 80.5538 511.209 82.1741 510.381 85.0008ZM268.76 26.5834L515.26 87.4709L515.739 85.5292L269.24 24.6418L268.76 26.5834ZM269 24.6126L-0.000121528 24.6127L-0.000121354 26.6127L269 26.6126L269 24.6126Z" fill="white"/>
<path d="M12.6 1.90664V5.92664L11.66 6.78664L13 7.98664V12.7066L11.4 14.3066H2.2V0.30664H11L12.6 1.90664ZM4 6.20664H10.8V1.90664H4V6.20664ZM4 12.7066H11.2V7.80664H4V12.7066ZM14.993 14.3066V3.10664H16.793V5.90664H23.293L25.093 7.70664V12.5066L23.293 14.3066H14.993ZM27.393 14.3066V3.10664H29.193V14.3066H27.393ZM16.793 12.7066H23.293V7.50664H16.793V12.7066ZM33.3945 14.3066L31.5945 12.5066V2.10664L33.3945 0.30664H41.3945V1.90664H33.3945V4.10664H40.0945L41.6945 5.70664V12.5066L39.8945 14.3066H33.3945ZM33.3945 12.7066H39.8945V5.70664H33.3945V12.7066ZM43.8969 12.5066V4.90664L45.6969 3.10664H51.8969L53.6969 4.90664V12.5066L51.8969 14.3066H45.6969L43.8969 12.5066ZM45.6969 12.7066H51.8969V4.70664H45.6969V12.7066ZM55.9891 17.1066V3.10664H64.2891L66.0891 4.90664V12.5066L64.2891 14.3066H57.7891V17.1066H55.9891ZM64.2891 4.70664H57.7891V12.7066H64.2891V4.70664ZM84.1867 14.3066H82.3867V4.96664L75.9467 14.3066H73.5867V3.10664H75.3867V12.4466L81.8267 3.10664H84.1867V14.3066ZM87.0805 12.5066V4.90664L88.8805 3.10664H96.2805V4.70664H88.8805V12.7066H96.2805V14.3066H88.8805L87.0805 12.5066ZM103.479 14.3066H101.679V4.70664H97.2789V3.10664H107.879V4.70664H103.479V14.3066ZM109.385 12.5066V4.90664L111.185 3.10664H117.385L119.185 4.90664V12.5066L117.385 14.3066H111.185L109.385 12.5066ZM111.185 12.7066H117.385V4.70664H111.185V12.7066ZM131.477 3.10664V14.3066H129.677V11.5066H123.277L121.477 9.70664V3.10664H123.277V9.90664H129.677V3.10664H131.477ZM133.88 14.3066V3.10664H135.68V7.90664H142.08V3.10664H143.88V14.3066H142.08V9.50664H135.68V14.3066H133.88ZM156.882 14.3066H155.082V4.96664L148.642 14.3066H146.282V3.10664H148.082V12.4466L154.522 3.10664H156.882V14.3066ZM159.876 14.3066V3.10664H161.676V7.68664H165.556L168.636 3.10664H170.716L167.176 8.26664L170.876 14.3066H168.836L165.816 9.28664H161.676V14.3066H159.876ZM172.078 12.5066V7.90664L180.078 7.70664V4.70664H172.478V3.10664H180.078L181.878 4.90664V14.3066H173.878L172.078 12.5066ZM173.878 9.50664V12.7066H180.078V9.10664L173.878 9.50664ZM189.566 14.3066V3.10664H199.566V14.3066H197.766V4.70664H191.366V14.3066H189.566ZM212.663 14.3066H210.863V4.96664L204.423 14.3066H202.063V3.10664H203.863V12.4466L210.303 3.10664H212.663V14.3066ZM221.057 14.3066H219.257V4.70664H214.857V3.10664H225.457V4.70664H221.057V14.3066ZM226.863 12.5066V7.90664L234.863 7.70664V4.70664H227.263V3.10664H234.863L236.663 4.90664V14.3066H228.663L226.863 12.5066ZM228.663 9.50664V12.7066H234.863V9.10664L228.663 9.50664ZM239.055 14.3066V3.10664H240.855V7.90664H247.255V3.10664H249.055V14.3066H247.255V9.50664H240.855V14.3066H239.055ZM262.058 14.3066H260.258V4.96664L253.818 14.3066H251.458V3.10664H253.258V12.4466L259.698 3.10664H262.058V14.3066ZM265.052 9.30664V4.70664L266.652 3.10664H275.852V14.3066H274.052V10.7066H267.772L265.992 14.3066H264.052L266.112 10.3666L265.052 9.30664ZM266.852 9.10664H274.052V4.70664H266.852V9.10664Z" fill="white"/>
</svg>
