<svg width="295.751099" height="176.000000" viewBox="0 0 295.751 176" fill="none" xmlns="http://www.w3.org/2000/svg" xmlns:xlink="http://www.w3.org/1999/xlink">
	<desc>
			Created with Pixso.
	</desc>
	<defs/>
	<rect id="фрейм 1" width="295.000000" height="175.000000" fill="#FFFFFF" fill-opacity="0"/>
	<line id="Линия 1" x1="157.000000" y1="18.000000" x2="295.000000" y2="175.000000" stroke="#FFFFFF" stroke-opacity="1.000000" stroke-width="2.000000"/>
	<line id="Линия 1" x1="65.000000" y1="5.000000" x2="293.000000" y2="174.000000" stroke="#FFFFFF" stroke-opacity="1.000000" stroke-width="2.000000"/>
	<line id="Линия 1" x1="16.000000" y1="60.000000" x2="293.000000" y2="174.000000" stroke="#FFFFFF" stroke-opacity="1.000000" stroke-width="2.000000"/>
	<circle id="Эллипс 1" cx="16.000000" cy="60.000000" r="5.000000" fill="#FFFFFF" fill-opacity="1.000000"/>
	<circle id="Эллипс 1" cx="65.000000" cy="5.000000" r="5.000000" fill="#FFFFFF" fill-opacity="1.000000"/>
	<circle id="Эллипс 1" cx="158.000000" cy="18.000000" r="5.000000" fill="#FFFFFF" fill-opacity="1.000000"/>
	<line id="Линия 1" x1="106.000000" y1="175.000000" x2="295.000000" y2="175.000000" stroke="#FFFFFF" stroke-opacity="1.000000" stroke-width="2.000000"/>
	<path id="path" d="M106 170L106 158.8L114.2 158.8L116 160.6L116 170L114.2 170L114.2 160.4L107.8 160.4L107.8 170L106 170ZM129.202 157.6L129.202 163.8L128.082 164.92L130.202 170L128.262 170L126.282 165.2L120.202 165.2L120.202 170L118.402 170L118.402 156L127.602 156L129.202 157.6ZM120.202 163.6L127.402 163.6L127.402 157.6L120.202 157.6L120.202 163.6ZM131.605 170L131.605 156L141.205 156L141.205 157.6L133.405 157.6L133.405 163.2L140.805 163.2L140.805 164.8L133.405 164.8L133.405 170L131.605 170ZM153.811 168.4L153.811 170L143.011 170L143.011 162.96L152.011 161.96L152.011 157.6L143.211 157.6L143.211 156L152.211 156L153.811 157.6L153.811 163.3L144.811 164.3L144.811 168.4L153.811 168.4ZM155.814 166.4L156.494 156L158.214 156L157.614 164.8L164.814 164.8L164.814 156L166.614 156L166.614 170L164.814 170L164.814 166.4L155.814 166.4ZM169.007 170L169.007 156L170.807 156L170.807 168.4L177.487 168.4L177.487 164.4L179.207 164.4L179.207 170L169.007 170ZM181 168.4L181 157.6L182.6 156L190 156L191.6 157.6L191.6 168.4L190 170L182.6 170L181 168.4ZM182.8 157.6L182.8 168.4L189.8 168.4L189.8 157.6L182.8 157.6ZM193.707 170.08L193.707 168.48L196.407 168.38L196.407 158.12L193.907 158.3L193.907 156.8L198.207 156L198.207 168.38L200.507 168.48L200.507 170.08L197.107 169.92L193.707 170.08Z" fill="#FFFFFF" fill-opacity="1.000000" fill-rule="nonzero"/>
</svg>
