<svg width="510" height="116" viewBox="0 0 510 116" fill="none" xmlns="http://www.w3.org/2000/svg">
<path d="M220 25.149L220.287 24.191L220.146 24.149L220 24.149L220 25.149ZM498.882 108.651C498.054 111.478 499.674 114.44 502.501 115.268C505.327 116.096 508.29 114.476 509.118 111.649C509.946 108.822 508.326 105.86 505.499 105.032C502.672 104.204 499.71 105.824 498.882 108.651ZM219.713 26.107L503.713 111.108L504.287 109.192L220.287 24.191L219.713 26.107ZM220 24.149L-0.000843654 24.1488L-0.000845711 26.1488L220 26.149L220 24.149Z" fill="white"/>
<path d="M14.6 1.6V5.62L13.66 6.48L15 7.68V12.4L13.4 14H4.2V-9.53674e-07H13L14.6 1.6ZM6 5.9H12.8V1.6H6V5.9ZM6 12.4H13.2V7.5H6V12.4ZM16.993 14V2.8H18.793V7.6H25.193V2.8H26.993V14H25.193V9.2H18.793V14H16.993ZM29.2953 12.2V4.6L31.0953 2.8H38.8953V9H31.0953V12.4H38.4953V14H31.0953L29.2953 12.2ZM31.0953 7.6L37.1753 7.4V4.4H31.0953V7.6ZM49.7922 2.8V12.4H54.7922V2.8H56.5922V14H41.1922V2.8H42.9922V12.4H47.9922V2.8H49.7922ZM58.9852 14V2.8H60.7852V7.6H67.1852V2.8H68.9852V14H67.1852V9.2H60.7852V14H58.9852ZM71.2875 12.2V4.6L73.0875 2.8H80.8875V9H73.0875V12.4H80.4875V14H73.0875L71.2875 12.2ZM73.0875 7.6L79.1675 7.4V4.4H73.0875V7.6ZM83.0844 12.2V4.6L84.8844 2.8H92.6844V9H84.8844V12.4H92.2844V14H84.8844L83.0844 12.2ZM84.8844 7.6L90.9644 7.4V4.4H84.8844V7.6ZM100.277 14V2.8H110.277V14H108.477V4.4H102.077V14H100.277ZM123.374 14H121.574V4.66L115.134 14H112.774V2.8H114.574V12.14L121.014 2.8H123.374V14ZM131.768 14H129.968V4.4H125.568V2.8H136.168V4.4H131.768V14ZM137.574 12.2V7.6L145.574 7.4V4.4H137.974V2.8H145.574L147.374 4.6V14H139.374L137.574 12.2ZM139.374 9.2V12.4H145.574V8.8L139.374 9.2ZM149.766 14V2.8H151.566V7.6H157.966V2.8H159.766V14H157.966V9.2H151.566V14H149.766ZM172.769 14H170.969V4.66L164.529 14H162.169V2.8H163.969V12.14L170.409 2.8H172.769V14ZM175.663 12.2V4.6L177.463 2.8H185.263V9H177.463V12.4H184.863V14H177.463L175.663 12.2ZM177.463 7.6L183.543 7.4V4.4H177.463V7.6Z" fill="white"/>
</svg>
