<svg width="435" height="213" viewBox="0 0 435 213" fill="none" xmlns="http://www.w3.org/2000/svg">
<path d="M173.855 31.1709L174.421 30.3469L174.165 30.1709L173.855 30.1709L173.855 31.1709ZM425.061 203.922C423.392 206.349 424.007 209.67 426.434 211.339C428.861 213.008 432.181 212.394 433.85 209.967C435.519 207.539 434.905 204.219 432.478 202.55C430.051 200.881 426.73 201.495 425.061 203.922ZM173.288 31.9948L428.889 207.768L430.022 206.12L174.421 30.3469L173.288 31.9948ZM173.855 30.1709L0.000118387 30.1709L0.000121396 32.1708L173.855 32.1709L173.855 30.1709Z" fill="white"/>
<path d="M0.2 13.4V2.6L1.8 0.999999H10.2V2.6H2V13.4H9.08V8.46H4.8V6.9H10.8V15H1.8L0.2 13.4ZM23.6078 2.6V10.4L22.0078 12H15.0078V15H13.2078V0.999999H22.0078L23.6078 2.6ZM15.0078 10.4H21.8078V2.6H15.0078V10.4ZM25.3102 15.08V13.48L27.8102 13.38V2.62L25.3102 2.52V0.919999L28.7102 1.08L32.1102 0.919999V2.52L29.6102 2.62V13.38L32.1102 13.48V15.08L28.7102 14.92L25.3102 15.08ZM34.2039 13.4V2.6L35.8039 0.999999H43.8039L45.4039 2.6V13.4L43.8039 15H35.8039L34.2039 13.4ZM36.0039 2.6V13.4H43.6039V2.6H36.0039ZM47.3977 9.5V7.7H52.5977V9.5H47.3977ZM54.2945 15.08V13.48L56.9945 13.38V3.12L54.4945 3.3V1.8L58.7945 0.999999V13.38L61.0945 13.48V15.08L57.6945 14.92L54.2945 15.08Z" fill="white"/>
</svg>
