<svg width="139" height="166" viewBox="0 0 139 166" fill="none" xmlns="http://www.w3.org/2000/svg">
<rect x="37.5" y="2.5" width="65.3248" height="97" rx="32.6624" stroke="white" stroke-width="5"/>
<rect x="63" y="18.8889" width="13.9487" height="23.8291" rx="6.97436" fill="white"/>
<path d="M0.186563 143V131.8H1.62656V136.6H7.54656V131.8H8.98656V143H7.54656V137.88H1.62656V143H0.186563ZM10.7453 141.56V137.88L17.1453 137.72V135.32H11.0653V134.04H17.1453L18.5853 135.48V143H12.1853L10.7453 141.56ZM12.1853 139.16V141.72H17.1453V138.84L12.1853 139.16ZM20.4991 134.04H26.8991L28.1791 135.32V137.64L27.2671 138.328L28.4991 139.288V141.72L27.2191 143H20.4991V134.04ZM21.9391 137.784H26.7391V135.32H21.9391V137.784ZM21.9391 141.72H27.0591V139.064H21.9391V141.72ZM30.1847 141.56V135.48L31.6247 134.04H37.8647V139H31.6247V141.72H37.5447V143H31.6247L30.1847 141.56ZM31.6247 137.88L36.4887 137.72V135.32H31.6247V137.88ZM40.1822 145.24V143.96H46.1022V141.72H41.0622L39.6222 140.28V135.48L41.2222 134.04H47.5422V143.736L46.0382 145.24H40.1822ZM41.0622 135.32V140.44H46.1022V135.32H41.0622ZM57.9478 143H56.5078V135.528L51.3558 143H49.4678V134.04H50.9078V141.512L56.0598 134.04H57.9478V143ZM64.6628 143H63.2228V135.32H59.7028V134.04H68.1828V135.32H64.6628V143ZM69.3878 141.56V135.48L70.8278 134.04H77.0678V139H70.8278V141.72H76.7478V143H70.8278L69.3878 141.56ZM70.8278 137.88L75.6918 137.72V135.32H70.8278V137.88ZM83.0616 143V134.04H84.5016V137.704H87.6056L90.0696 134.04H91.7336L88.9016 138.168L91.8616 143H90.2296L87.8136 138.984H84.5016V143H83.0616ZM92.6794 145.24V143.96H96.8554L97.5434 141.72H94.8074L92.1994 134.04H93.6554L95.8314 140.44H97.9274L99.9914 134.04H101.447L97.8634 145.24H92.6794ZM102.577 145.24V134.04H109.217L110.657 135.48V141.56L109.217 143H104.017V145.24H102.577ZM109.217 135.32H104.017V141.72H109.217V135.32ZM112.419 141.56V135.48L113.859 134.04H119.779V135.32H113.859V141.72H119.779V143H113.859L112.419 141.56ZM121.138 141.56V135.48L122.578 134.04H127.538L128.978 135.48V141.56L127.538 143H122.578L121.138 141.56ZM122.578 141.72H127.538V135.32H122.578V141.72ZM130.812 145.24V134.04H137.452L138.892 135.48V141.56L137.452 143H132.252V145.24H130.812ZM137.452 135.32H132.252V141.72H137.452V135.32ZM11.9711 154.424V157.992H16.6271V154.424H18.0351V163H16.6271V159.176H11.9711V163H10.5631V154.424H11.9711ZM23.9986 154.28C25.044 154.28 25.8173 154.509 26.3186 154.968C26.82 155.427 27.0706 156.157 27.0706 157.16V163H26.0466L25.7746 161.784H25.7106C25.4653 162.093 25.2093 162.355 24.9426 162.568C24.6866 162.771 24.388 162.92 24.0466 163.016C23.716 163.112 23.3106 163.16 22.8306 163.16C22.3186 163.16 21.8546 163.069 21.4386 162.888C21.0333 162.707 20.7133 162.429 20.4786 162.056C20.244 161.672 20.1266 161.192 20.1266 160.616C20.1266 159.763 20.4626 159.107 21.1346 158.648C21.8066 158.179 22.8413 157.923 24.2386 157.88L25.6946 157.832V157.32C25.6946 156.605 25.54 156.109 25.2306 155.832C24.9213 155.555 24.484 155.416 23.9186 155.416C23.4706 155.416 23.044 155.485 22.6386 155.624C22.2333 155.752 21.8546 155.901 21.5026 156.072L21.0706 155.016C21.444 154.813 21.8866 154.643 22.3986 154.504C22.9106 154.355 23.444 154.28 23.9986 154.28ZM24.4146 158.856C23.348 158.899 22.6066 159.069 22.1906 159.368C21.7853 159.667 21.5826 160.088 21.5826 160.632C21.5826 161.112 21.7266 161.464 22.0146 161.688C22.3133 161.912 22.692 162.024 23.1506 162.024C23.876 162.024 24.4786 161.827 24.9586 161.432C25.4386 161.027 25.6786 160.408 25.6786 159.576V158.808L24.4146 158.856ZM33.4756 163V154.04H34.9156V157.704H38.0196L40.4836 154.04H42.1476L39.3156 158.168L42.2756 163H40.6436L38.2276 158.984H34.9156V163H33.4756ZM43.3175 161.56V155.48L44.7575 154.04H49.7175L51.1575 155.48V161.56L49.7175 163H44.7575L43.3175 161.56ZM44.7575 161.72H49.7175V155.32H44.7575V161.72ZM52.9913 163V154.04H54.4313V157.88H59.5513V154.04H60.9913V163H59.5513V159.16H54.4313V163H52.9913ZM67.2331 163H65.7931V155.32H62.2731V154.04H70.7531V155.32H67.2331V163ZM72.0381 165.24V154.04H78.6781L80.1181 155.48V161.56L78.6781 163H73.4781V165.24H72.0381ZM78.6781 155.32H73.4781V161.72H78.6781V155.32ZM81.88 161.56V155.48L83.32 154.04H88.28L89.72 155.48V161.56L88.28 163H83.32L81.88 161.56ZM83.32 161.72H88.28V155.32H83.32V161.72ZM99.5538 154.04V163H98.1138V155.288H94.3858L93.6978 163H90.8338V161.688H92.4658L93.0258 155.288H91.6338V154.04H99.5538ZM109.476 154.04V163H108.036V155.288H104.308L103.62 163H100.756V161.688H102.388L102.948 155.288H101.556V154.04H109.476ZM111.318 161.56V155.48L112.758 154.04H118.998V159H112.758V161.72H118.678V163H112.758L111.318 161.56ZM112.758 157.88L117.622 157.72V155.32H112.758V157.88ZM120.835 165.24V154.04H127.475L128.915 155.48V161.56L127.475 163H122.275V165.24H120.835ZM127.475 155.32H122.275V161.72H127.475V155.32Z" fill="white"/>
</svg>
