<svg width="692" height="616" viewBox="0 0 692 616" fill="none" xmlns="http://www.w3.org/2000/svg">
<path d="M106.8 27.2H54.48V33.6H106.8C109.04 33.6 110.32 32.4 110.32 30.4C110.32 28.4 109.04 27.2 106.8 27.2ZM54.48 64H29.2V8H113.2C127.2 8 135.6 19.2 135.6 30.4C135.6 41.6 127.2 52.8 113.2 52.8H54.48V64Z" fill="#ffffff55"/>
<path d="M391.8 426.2H339.48V432.6H391.8C394.04 432.6 395.32 431.4 395.32 429.4C395.32 427.4 394.04 426.2 391.8 426.2ZM339.48 463H314.2V407H398.2C412.2 407 420.6 418.2 420.6 429.4C420.6 440.6 412.2 451.8 398.2 451.8H339.48V463Z" fill="#ffffff55"/>
<path d="M336.48 10V27.6C336.48 29.6 337.76 30.8 340 30.8H389.92V10H415.2V50C415.2 60.72 409.92 66 399.2 66H317.6V51.6H386.72C388.88 51.6 389.92 50.56 389.92 48.4V45.2H333.6C319.6 45.2 311.2 38.8 311.2 27.6V10H336.48Z" fill="#ffffff55"/>
<path d="M168.56 236.48L163.76 246.8H218.72V229.2H179.92C174.56 229.2 170.8 231.6 168.56 236.48ZM250.4 272.4H225.12V266H152.48V272.4H127.2V246.8H136.16L144.24 228.96C150.08 216.24 159.76 210 173.68 210H244V246.8H250.4V272.4Z" fill="#ffffff55"/>
<path d="M527.6 227V283H502.32V251L446.48 283H421.2V227H446.48V259L502.32 227H527.6Z" fill="#ffffff55"/>
<path d="M604.381 375.1H662.781C678.221 375.1 690.781 388.46 690.781 403.9C690.781 419.34 678.221 432.7 662.781 432.7H604.381C588.941 432.7 576.381 419.34 576.381 403.9C576.381 388.46 588.941 375.1 604.381 375.1ZM657.581 395.9H609.581C605.181 395.9 601.581 399.5 601.581 403.9C601.581 408.3 605.181 411.9 609.581 411.9H657.581C661.981 411.9 665.581 408.3 665.581 403.9C665.581 399.5 661.981 395.9 657.581 395.9Z" fill="#ffffff55"/>
<path d="M549.2 616V560H574.48V578.4H630.32V560H655.6V616H630.32V597.6H574.48V616H549.2Z" fill="#ffffff55"/>
</svg>
